<svg width="42" height="38" viewBox="0 0 42 38" fill="none" xmlns="http://www.w3.org/2000/svg">
<path d="M4.68494 37.5H37.3149C40.6516 37.5 42.7316 33.8816 41.0633 31L24.7483 2.81164C23.0799 -0.070026 18.9199 -0.070026 17.2516 2.81164L0.936604 31C-0.73173 33.8816 1.34827 37.5 4.68494 37.5ZM20.9999 22.3333C19.8083 22.3333 18.8333 21.3583 18.8333 20.1666V15.8333C18.8333 14.6416 19.8083 13.6666 20.9999 13.6666C22.1916 13.6666 23.1666 14.6416 23.1666 15.8333V20.1666C23.1666 21.3583 22.1916 22.3333 20.9999 22.3333ZM23.1666 31H18.8333V26.6666H23.1666V31Z" fill="#999999"/>
</svg>
