<svg width="12" height="14" viewBox="0 0 12 14" fill="none" xmlns="http://www.w3.org/2000/svg">
<path d="M1.33333 13.6667C0.966667 13.6667 0.652667 13.5363 0.391333 13.2754C0.130444 13.014 0 12.7 0 12.3334V3.00004H1.33333V12.3334H8.66667V13.6667H1.33333ZM4 11C3.63333 11 3.31956 10.8696 3.05867 10.6087C2.79733 10.3474 2.66667 10.0334 2.66667 9.66671V1.66671C2.66667 1.30004 2.79733 0.986041 3.05867 0.724707C3.31956 0.463818 3.63333 0.333374 4 0.333374H10C10.3667 0.333374 10.6807 0.463818 10.942 0.724707C11.2029 0.986041 11.3333 1.30004 11.3333 1.66671V9.66671C11.3333 10.0334 11.2029 10.3474 10.942 10.6087C10.6807 10.8696 10.3667 11 10 11H4ZM4 9.66671H10V1.66671H4V9.66671Z" fill="black"/>
</svg>
