<svg width="16" height="16" viewBox="0 0 16 16" fill="none" xmlns="http://www.w3.org/2000/svg">
<path d="M4.7998 3.2001C4.7998 2.77575 4.96838 2.36878 5.26843 2.06873C5.56849 1.76867 5.97546 1.6001 6.3998 1.6001H9.26861C9.58676 1.60038 9.89178 1.72699 10.1166 1.9521L13.2486 5.0833C13.4734 5.30826 13.5997 5.61326 13.5998 5.9313V11.2001C13.5998 11.6244 13.4312 12.0314 13.1312 12.3315C12.8311 12.6315 12.4242 12.8001 11.9998 12.8001H6.3998C5.97546 12.8001 5.56849 12.6315 5.26843 12.3315C4.96838 12.0314 4.7998 11.6244 4.7998 11.2001V3.2001ZM6.3998 2.4001C6.18763 2.4001 5.98415 2.48438 5.83412 2.63441C5.68409 2.78444 5.5998 2.98792 5.5998 3.2001V11.2001C5.5998 11.4123 5.68409 11.6158 5.83412 11.7658C5.98415 11.9158 6.18763 12.0001 6.3998 12.0001H11.9998C12.212 12.0001 12.4155 11.9158 12.5655 11.7658C12.7155 11.6158 12.7998 11.4123 12.7998 11.2001V6.4001H9.9998C9.68154 6.4001 9.37632 6.27367 9.15128 6.04863C8.92623 5.82358 8.7998 5.51836 8.7998 5.2001V2.4001H6.3998ZM9.5998 2.5657V5.2001C9.5998 5.30618 9.64195 5.40793 9.71696 5.48294C9.79198 5.55795 9.89372 5.6001 9.9998 5.6001H12.6342L9.5998 2.5657Z" fill="black"/>
<path d="M3.2002 4.0002C3.2002 3.78802 3.28448 3.58454 3.43451 3.43451C3.58454 3.28448 3.78802 3.2002 4.0002 3.2002V11.2002C4.0002 11.8367 4.25305 12.4472 4.70314 12.8973C5.15323 13.3473 5.76368 13.6002 6.4002 13.6002H12.0002C12.0002 13.8124 11.9159 14.0159 11.7659 14.1659C11.6159 14.3159 11.4124 14.4002 11.2002 14.4002H6.3522C5.51623 14.4002 4.71451 14.0681 4.12339 13.477C3.53228 12.8859 3.2002 12.0842 3.2002 11.2482V4.0002Z" fill="black"/>
</svg>
