<svg width="16" height="16" viewBox="0 0 16 16" fill="none" xmlns="http://www.w3.org/2000/svg">
<path d="M13.0092 2.99067C11.6873 1.6688 9.54824 1.6688 8.22793 2.99067L6.71387 4.50474L7.51074 5.30161L9.0248 3.78755C9.86543 2.94692 11.2842 2.85786 12.2123 3.78755C13.142 4.71724 13.0529 6.13442 12.2123 6.97505L10.6982 8.48911L11.4967 9.28755L13.0107 7.77349C14.3295 6.45161 14.3295 4.31255 13.0092 2.99067ZM6.97637 12.2125C6.13574 13.0532 4.71699 13.1422 3.78887 12.2125C2.85918 11.2829 2.94824 9.86567 3.78887 9.02505L5.30293 7.51099L4.50449 6.71255L2.99043 8.22661C1.66855 9.54849 1.66855 11.6875 2.99043 13.0079C4.3123 14.3282 6.45137 14.3297 7.77168 13.0079L9.28574 11.4938L8.48887 10.6969L6.97637 12.2125ZM4.06699 3.27192C4.0435 3.24866 4.01177 3.23561 3.97871 3.23561C3.94565 3.23561 3.91392 3.24866 3.89043 3.27192L3.27168 3.89067C3.24842 3.91417 3.23537 3.94589 3.23537 3.97896C3.23537 4.01202 3.24842 4.04374 3.27168 4.06724L11.9342 12.7297C11.9826 12.7782 12.0623 12.7782 12.1107 12.7297L12.7295 12.111C12.7779 12.0625 12.7779 11.9829 12.7295 11.9344L4.06699 3.27192Z" fill="black"/>
</svg>
