<svg width="24" height="24" viewBox="0 0 24 24" fill="none" xmlns="http://www.w3.org/2000/svg">
<path d="M12.884 2.53152C12.538 1.87752 11.462 1.87752 11.116 2.53152L2.11596 19.5315C2.03494 19.6839 1.99478 19.8546 1.99938 20.0272C2.00398 20.1997 2.05319 20.368 2.14221 20.5159C2.23124 20.6637 2.35704 20.786 2.50736 20.8707C2.65768 20.9555 2.82739 20.9998 2.99996 20.9995H21C21.1724 20.9999 21.342 20.9555 21.4922 20.8708C21.6424 20.7861 21.7682 20.6639 21.8571 20.5162C21.946 20.3684 21.9951 20.2002 21.9997 20.0278C22.0042 19.8554 21.964 19.6847 21.883 19.5325L12.884 2.53152ZM13 17.9995H11V15.9995H13V17.9995ZM11 13.9995V8.99952H13L13.001 13.9995H11Z" fill="#FF7979"/>
</svg>
