<svg width="18" height="18" viewBox="0 0 18 18" fill="none" xmlns="http://www.w3.org/2000/svg">
<path d="M17.6941 8.98405C17.6941 13.6986 13.8115 17.5208 9.0221 17.5208C4.23267 17.5208 0.350098 13.6992 0.350098 8.98405C0.350098 4.26917 4.23238 0.447266 9.0221 0.447266C13.8115 0.447266 17.6941 4.26945 17.6941 8.98405ZM9.0221 2.35555C5.30295 2.35555 2.2881 5.3233 2.2881 8.98433C2.2881 12.6451 5.30267 15.6134 9.0221 15.6134C12.7412 15.6134 15.7561 12.6451 15.7561 8.98433C15.7564 5.32358 12.7412 2.35555 9.0221 2.35555ZM7.24695 7.00039C7.24695 5.65377 8.12438 5.18098 9.00124 5.18098C9.52324 5.18098 9.9701 5.22852 10.3272 5.66389C11.1627 6.68173 10.2304 7.66948 9.1681 8.19233C8.41638 8.56245 8.06124 9.18964 8.06124 10.0629V12.0165H10.045V10.865C10.045 9.10723 11.1935 9.54908 12.029 8.44967C13.1587 6.96242 12.9144 5.28589 11.3812 4.09142C9.62753 2.72427 7.64295 3.40264 7.08981 3.77277C6.6301 4.08017 5.00153 5.22205 5.31467 7.67848L7.24238 7.68242C7.24238 7.6827 7.24638 7.45264 7.24638 7.00039H7.24695ZM10.0455 14.6889V12.6847H8.06181V14.6889H10.0455Z" fill="#828282"/>
</svg>
