<svg width="10" height="12" viewBox="0 0 10 12" fill="none" xmlns="http://www.w3.org/2000/svg">
<path d="M6.71651 0.516807C6.75366 0.479556 6.7978 0.450002 6.8464 0.429837C6.895 0.409672 6.94709 0.399292 6.99971 0.399292C7.05232 0.399292 7.10442 0.409672 7.15301 0.429837C7.20161 0.450002 7.24575 0.479556 7.28291 0.516807L9.68291 2.91681C9.72016 2.95396 9.74971 2.9981 9.76988 3.0467C9.79004 3.0953 9.80042 3.14739 9.80042 3.20001C9.80042 3.25262 9.79004 3.30472 9.76988 3.35331C9.74971 3.40191 9.72016 3.44605 9.68291 3.48321L7.28291 5.88321C7.24572 5.9204 7.20157 5.9499 7.15297 5.97003C7.10438 5.99015 7.0523 6.00051 6.99971 6.00051C6.94711 6.00051 6.89503 5.99015 6.84644 5.97003C6.79785 5.9499 6.7537 5.9204 6.71651 5.88321C6.67932 5.84602 6.64982 5.80187 6.62969 5.75327C6.60956 5.70468 6.5992 5.6526 6.5992 5.60001C6.5992 5.54741 6.60956 5.49533 6.62969 5.44674C6.64982 5.39815 6.67932 5.354 6.71651 5.31681L8.43411 3.60001L0.599707 3.60001C0.49362 3.60001 0.391879 3.55786 0.316864 3.48285C0.24185 3.40784 0.199707 3.30609 0.199707 3.20001C0.199707 3.09392 0.24185 2.99218 0.316864 2.91716C0.391879 2.84215 0.49362 2.80001 0.599707 2.80001L8.43411 2.80001L6.71651 1.08321C6.67926 1.04605 6.6497 1.00191 6.62954 0.953314C6.60937 0.904718 6.59899 0.852621 6.59899 0.800007C6.59899 0.747393 6.60937 0.695296 6.62954 0.6467C6.6497 0.598104 6.67926 0.553964 6.71651 0.516807V0.516807Z" fill="#00A0E4"/>
<path d="M3.28313 6.11678C3.32038 6.15394 3.34994 6.19808 3.3701 6.24668C3.39027 6.29527 3.40065 6.34737 3.40065 6.39998C3.40065 6.4526 3.39027 6.50469 3.3701 6.55329C3.34994 6.60188 3.32038 6.64603 3.28313 6.68318L1.56553 8.39998L9.39993 8.39998C9.50602 8.39998 9.60776 8.44212 9.68278 8.51714C9.75779 8.59215 9.79993 8.69389 9.79993 8.79998C9.79993 8.90607 9.75779 9.00781 9.68278 9.08282C9.60776 9.15784 9.50602 9.19998 9.39993 9.19998L1.56553 9.19998L3.28313 10.9168C3.35824 10.9919 3.40044 11.0938 3.40044 11.2C3.40044 11.3062 3.35824 11.4081 3.28313 11.4832C3.20802 11.5583 3.10615 11.6005 2.99993 11.6005C2.89371 11.6005 2.79184 11.5583 2.71673 11.4832L0.316734 9.08318C0.279483 9.04602 0.249929 9.00188 0.229764 8.95329C0.209598 8.90469 0.199219 8.8526 0.199219 8.79998C0.199219 8.74737 0.209598 8.69527 0.229764 8.64667C0.249929 8.59808 0.279483 8.55394 0.316734 8.51678L2.71673 6.11678C2.75389 6.07953 2.79803 6.04998 2.84663 6.02981C2.89522 6.00965 2.94732 5.99927 2.99993 5.99927C3.05255 5.99927 3.10464 6.00965 3.15324 6.02981C3.20184 6.04998 3.24598 6.07953 3.28313 6.11678V6.11678Z" fill="#00A0E4"/>
</svg>
