<svg width="17" height="16" viewBox="0 0 17 16" fill="none" xmlns="http://www.w3.org/2000/svg">
<path d="M8.4502 14.85C4.9627 14.85 1.2002 12.6625 1.2002 7.8625C1.2002 3.0625 4.9627 0.875 8.4502 0.875C10.3877 0.875 12.1752 1.5125 13.5002 2.675C14.9377 3.95 15.7002 5.75 15.7002 7.8625C15.7002 9.975 14.9377 11.7625 13.5002 13.0375C12.1752 14.2 10.3752 14.85 8.4502 14.85Z" fill="url(#paint0_radial)"/>
<path d="M14.4365 3.70898C15.1027 4.78398 15.4502 6.06398 15.4502 7.48773C15.4502 9.60023 14.6877 11.3877 13.2502 12.6627C11.9252 13.8252 10.1252 14.4752 8.20023 14.4752C5.94273 14.4752 3.57523 13.5565 2.17773 11.6077C3.52273 13.8152 6.05273 14.8502 8.45023 14.8502C10.3752 14.8502 12.1752 14.2002 13.5002 13.0377C14.9377 11.7627 15.7002 9.97523 15.7002 7.86273C15.7002 6.27023 15.2665 4.85523 14.4365 3.70898Z" fill="#EB8F00"/>
<path d="M9.37521 12.6244C9.30396 12.6244 9.23271 12.6094 9.16771 12.5794C8.94044 12.4784 8.6947 12.4256 8.446 12.4243C8.19729 12.423 7.95101 12.4733 7.72271 12.5719C7.47646 12.6957 7.17521 12.5957 7.05146 12.3494C6.99215 12.2309 6.98226 12.0936 7.02397 11.9678C7.06568 11.842 7.15558 11.7378 7.27396 11.6782C7.6364 11.514 8.02949 11.4283 8.4274 11.4268C8.82531 11.4253 9.21903 11.508 9.58271 11.6694C9.64247 11.6967 9.69628 11.7354 9.74106 11.7835C9.78584 11.8315 9.82072 11.8879 9.8437 11.9494C9.86668 12.0109 9.87732 12.0764 9.87501 12.142C9.87269 12.2076 9.85747 12.2722 9.83021 12.3319C9.79054 12.4193 9.72651 12.4933 9.64581 12.5452C9.5651 12.5971 9.47115 12.6246 9.37521 12.6244Z" fill="#422B0D"/>
<path d="M5.87521 5.96191C7.07271 5.96566 8.04146 6.93941 8.03771 8.13691C8.03396 9.33441 7.06021 10.3032 5.86271 10.2994C4.66521 10.2957 3.69646 9.32191 3.70021 8.12441C3.70771 6.92816 4.67896 5.96316 5.87521 5.96191Z" fill="white"/>
<path d="M5.8376 9.7748C6.90075 9.7748 7.7626 8.91295 7.7626 7.8498C7.7626 6.78666 6.90075 5.9248 5.8376 5.9248C4.77445 5.9248 3.9126 6.78666 3.9126 7.8498C3.9126 8.91295 4.77445 9.7748 5.8376 9.7748Z" fill="#422B0D"/>
<path d="M6.7089 8.80725C6.84638 8.69185 6.87147 8.49543 6.76495 8.36852C6.65843 8.24162 6.46063 8.23229 6.32315 8.34769C6.18567 8.46309 6.16057 8.65952 6.2671 8.78642C6.37362 8.91332 6.57142 8.92265 6.7089 8.80725Z" fill="white"/>
<path d="M5.88128 7.9827C6.3797 7.61172 6.53981 6.98326 6.2389 6.57899C5.938 6.17473 5.29003 6.14774 4.79162 6.51872C4.2932 6.88969 4.13309 7.51815 4.43399 7.92242C4.7349 8.32669 5.38287 8.35368 5.88128 7.9827Z" fill="white"/>
<path d="M11.2502 5.96191C12.4477 5.96566 13.4165 6.93941 13.4127 8.13691C13.409 9.33441 12.4352 10.3032 11.2377 10.2994C10.0402 10.2957 9.07146 9.32191 9.07521 8.12441C9.08271 6.92816 10.054 5.96316 11.2502 5.96191Z" fill="white"/>
<path d="M11.2126 9.7748C12.2757 9.7748 13.1376 8.91295 13.1376 7.8498C13.1376 6.78666 12.2757 5.9248 11.2126 5.9248C10.1494 5.9248 9.2876 6.78666 9.2876 7.8498C9.2876 8.91295 10.1494 9.7748 11.2126 9.7748Z" fill="#422B0D"/>
<path d="M12.0942 8.79944C12.2316 8.68404 12.2567 8.48761 12.1502 8.36071C12.0437 8.2338 11.8459 8.22448 11.7084 8.33988C11.5709 8.45528 11.5458 8.6517 11.6523 8.77861C11.7589 8.90551 11.9567 8.91484 12.0942 8.79944Z" fill="white"/>
<path d="M11.2577 7.98367C11.7562 7.6127 11.9163 6.98424 11.6154 6.57997C11.3145 6.1757 10.6665 6.14871 10.1681 6.51969C9.66967 6.89067 9.50956 7.51913 9.81046 7.9234C10.1114 8.32767 10.7593 8.35465 11.2577 7.98367Z" fill="white"/>
<path d="M3.9252 4.97482C3.6502 5.02482 3.6377 5.42482 3.9377 5.43732C4.6002 5.44607 5.2402 5.19982 5.7252 4.74982C5.9102 4.58982 6.06645 4.39982 6.1877 4.18732C6.2602 4.08357 6.2352 3.94107 6.13145 3.86857C6.10683 3.85132 6.07905 3.83909 6.0497 3.83258C6.02036 3.82607 5.99002 3.82541 5.96041 3.83063C5.93081 3.83585 5.90253 3.84686 5.87718 3.86302C5.85183 3.87918 5.82992 3.90018 5.8127 3.92482L5.8002 3.93732C5.31027 4.48495 4.64941 4.85062 3.9252 4.97482Z" fill="#422B0D"/>
<path d="M11.0629 3.92482C11.0457 3.90018 11.0238 3.87918 10.9984 3.86302C10.9731 3.84686 10.9448 3.83585 10.9152 3.83063C10.8856 3.82541 10.8552 3.82607 10.8259 3.83258C10.7965 3.83909 10.7688 3.85132 10.7442 3.86857C10.7195 3.8858 10.6985 3.90771 10.6824 3.93305C10.6662 3.9584 10.6552 3.98668 10.65 4.01629C10.6447 4.04589 10.6454 4.07623 10.6519 4.10558C10.6584 4.13493 10.6707 4.1627 10.6879 4.18732C10.8092 4.39982 10.9654 4.58982 11.1504 4.74982C11.6379 5.19607 12.2767 5.44232 12.9379 5.43732C13.2504 5.42482 13.2254 5.02482 12.9504 4.97482C12.2184 4.85476 11.551 4.48349 11.0629 3.92482Z" fill="#422B0D"/>
<defs>
<radialGradient id="paint0_radial" cx="0" cy="0" r="1" gradientUnits="userSpaceOnUse" gradientTransform="translate(8.4502 7.8625) scale(7.12)">
<stop offset="0.5" stop-color="#FDE030"/>
<stop offset="0.92" stop-color="#F7C02B"/>
<stop offset="1" stop-color="#F4A223"/>
</radialGradient>
</defs>
</svg>
