<svg width="20" height="20" viewBox="0 0 20 20" fill="none" xmlns="http://www.w3.org/2000/svg">
<path d="M3.42031 7.93979C3.37561 7.8952 3.34015 7.84223 3.31595 7.78392C3.29175 7.7256 3.2793 7.66309 3.2793 7.59995C3.2793 7.53681 3.29175 7.4743 3.31595 7.41598C3.34015 7.35767 3.37561 7.3047 3.42031 7.26011L6.30031 4.38011C6.3449 4.33541 6.39787 4.29994 6.45619 4.27575C6.5145 4.25155 6.57702 4.23909 6.64015 4.23909C6.70329 4.23909 6.76581 4.25155 6.82412 4.27575C6.88244 4.29994 6.93541 4.33541 6.97999 4.38011L9.85999 7.26011C9.90462 7.30474 9.94002 7.35772 9.96418 7.41603C9.98833 7.47434 10.0008 7.53684 10.0008 7.59995C10.0008 7.66306 9.98833 7.72556 9.96418 7.78387C9.94002 7.84218 9.90462 7.89516 9.85999 7.93979C9.81537 7.98442 9.76238 8.01982 9.70407 8.04397C9.64576 8.06812 9.58327 8.08056 9.52015 8.08056C9.45704 8.08056 9.39454 8.06812 9.33623 8.04397C9.27792 8.01982 9.22494 7.98442 9.18031 7.93979L7.12015 5.87867L7.12015 15.2799C7.12015 15.4073 7.06958 15.5293 6.97957 15.6194C6.88955 15.7094 6.76746 15.7599 6.64015 15.7599C6.51285 15.7599 6.39076 15.7094 6.30074 15.6194C6.21073 15.5293 6.16015 15.4073 6.16015 15.2799L6.16015 5.87867L4.09999 7.93979C4.05541 7.98449 4.00244 8.01996 3.94412 8.04415C3.88581 8.06835 3.82329 8.08081 3.76015 8.08081C3.69702 8.08081 3.6345 8.06835 3.57619 8.04415C3.51787 8.01996 3.4649 7.98449 3.42031 7.93979Z" fill="black"/>
<path d="M10.1403 12.0602C10.1849 12.0155 10.2378 11.98 10.2962 11.9558C10.3545 11.9316 10.417 11.9191 10.4801 11.9191C10.5433 11.9191 10.6058 11.9316 10.6641 11.9558C10.7224 11.98 10.7754 12.0155 10.82 12.0602L12.8801 14.1213L12.8801 4.71999C12.8801 4.59269 12.9307 4.4706 13.0207 4.38058C13.1107 4.29057 13.2328 4.23999 13.3601 4.23999C13.4874 4.23999 13.6095 4.29057 13.6995 4.38058C13.7896 4.4706 13.8401 4.59269 13.8401 4.71999L13.8401 14.1213L15.9003 12.0602C15.9904 11.97 16.1127 11.9194 16.2401 11.9194C16.3676 11.9194 16.4898 11.97 16.58 12.0602C16.6701 12.1503 16.7207 12.2725 16.7207 12.4C16.7207 12.5275 16.6701 12.6497 16.58 12.7398L13.7 15.6198C13.6554 15.6645 13.6024 15.7 13.5441 15.7242C13.4858 15.7484 13.4233 15.7608 13.3601 15.7608C13.297 15.7608 13.2345 15.7484 13.1762 15.7242C13.1178 15.7 13.0649 15.6645 13.0203 15.6198L10.1403 12.7398C10.0956 12.6952 10.0601 12.6423 10.0359 12.584C10.0117 12.5256 9.99927 12.4631 9.99927 12.4C9.99927 12.3369 10.0117 12.2743 10.0359 12.216C10.0601 12.1577 10.0956 12.1047 10.1403 12.0602Z" fill="black"/>
</svg>
