<svg xmlns="http://www.w3.org/2000/svg" xmlns:xlink="http://www.w3.org/1999/xlink" viewBox="0,0,256,256" width="64px" height="64px" fill-rule="nonzero"><g fill="#4fe775" fill-rule="nonzero" stroke="none" stroke-width="1" stroke-linecap="butt" stroke-linejoin="miter" stroke-miterlimit="10" stroke-dasharray="" stroke-dashoffset="0" font-family="none" font-weight="none" font-size="none" text-anchor="none" style="mix-blend-mode: normal"><g transform="scale(4,4)"><path d="M31,4c-15.98828,0 -29,13.00781 -29,29c0,15.99219 13.01172,29 29,29c15.98828,0 29,-13.00781 29,-29c0,-4.64453 -1.13281,-9.23047 -3.25391,-13.32812l5.96094,-5.96484c0.39063,-0.39062 0.39063,-1.02344 0,-1.41406l-4,-4c-0.39062,-0.39062 -1.02344,-0.39062 -1.41406,0l-5.06641,5.06641c-0.04687,-0.125 -0.11719,-0.24219 -0.21094,-0.34375c-5.53125,-5.8125 -12.99609,-9.01562 -21.01562,-9.01562zM31,6c7.46875,0 14.41797,2.98047 19.5625,8.39453c0.11328,0.11719 0.24609,0.19141 0.38672,0.24219l-2.96484,2.96484c-0.04687,-0.11719 -0.10937,-0.23047 -0.20312,-0.33203c-0.16797,-0.17969 -0.33984,-0.35547 -0.51562,-0.53125c-0.66016,-0.66016 -1.36328,-1.28125 -2.09375,-1.85547c-0.4375,-0.33984 -1.06641,-0.26562 -1.40625,0.16797c-0.33984,0.4375 -0.26562,1.0625 0.17188,1.40234c0.66797,0.52344 1.30859,1.09766 1.91016,1.69922c0.16016,0.16016 0.32031,0.32422 0.47266,0.48828c0.10938,0.11328 0.24219,0.19141 0.38281,0.24609l-15.70312,15.69922l-10.29297,-10.29297c-0.39062,-0.39062 -1.02344,-0.39062 -1.41406,0l-4,4c-0.39062,0.39063 -0.39062,1.02344 0,1.41406l15,15c0.19531,0.19531 0.44922,0.29297 0.70703,0.29297c0.25781,0 0.51172,-0.09766 0.70703,-0.29297l18.98438,-18.98437c0.06641,0.17969 0.12891,0.35938 0.19141,0.54297c0.10156,0.29688 0.19531,0.59766 0.28125,0.90234c0.03516,0.12891 0.08203,0.25781 0.11719,0.38672c0.11719,0.45313 0.22266,0.91016 0.3125,1.36719c0.01563,0.07813 0.02734,0.15625 0.04297,0.23438c0.82031,4.48438 0.14453,9.13672 -1.86719,13.20313c-0.10156,0.20313 -0.20312,0.41016 -0.3125,0.61328c-0.16406,0.30859 -0.33984,0.61719 -0.51953,0.91797c-0.16797,0.27734 -0.34375,0.54297 -0.52344,0.80859c-0.15625,0.23047 -0.30469,0.46875 -0.47266,0.69531c-0.34375,0.47656 -0.70703,0.92969 -1.08984,1.37109c-0.13672,0.15625 -0.28516,0.30469 -0.42578,0.45703c-5.95312,6.44531 -15.58203,8.71875 -24.01953,4.9375c-2.51953,-1.12891 -4.69141,-2.70703 -6.5,-4.58203c-0.25,-0.25781 -0.48437,-0.52734 -0.71875,-0.79687c-0.23828,-0.27344 -0.47656,-0.54687 -0.69922,-0.82812c-0.17187,-0.21875 -0.32812,-0.44531 -0.48828,-0.66797c-0.25781,-0.35156 -0.50781,-0.70312 -0.73828,-1.07031c-0.10547,-0.16406 -0.19922,-0.33594 -0.29687,-0.50391c-0.25391,-0.42578 -0.5,-0.85547 -0.72266,-1.30078c-0.06641,-0.13672 -0.125,-0.27734 -0.19141,-0.41406c-0.22266,-0.46875 -0.4375,-0.94531 -0.625,-1.42969c-0.0625,-0.16016 -0.11328,-0.32812 -0.17187,-0.48828c-0.16016,-0.45703 -0.32031,-0.91797 -0.45312,-1.38672c-0.07031,-0.25 -0.12109,-0.50781 -0.18359,-0.76172c-0.09375,-0.37891 -0.18359,-0.75391 -0.25781,-1.13672c-0.06641,-0.37891 -0.11328,-0.75781 -0.16016,-1.13672c-0.03516,-0.26562 -0.07812,-0.53125 -0.10156,-0.79687c-0.04297,-0.47656 -0.05859,-0.95703 -0.06641,-1.4375c-0.00781,-0.17969 -0.01562,-0.35547 -0.01562,-0.53125c0.00391,-0.51953 0.03516,-1.03516 0.07422,-1.55078c0.01172,-0.15625 0.01563,-0.30859 0.03125,-0.46484c0.05078,-0.48828 0.125,-0.98047 0.21094,-1.46875c0.03125,-0.19141 0.0625,-0.38672 0.10156,-0.57812c0.08203,-0.42578 0.19531,-0.83984 0.30469,-1.26172c0.07422,-0.26562 0.14063,-0.53125 0.22266,-0.79687c0.10547,-0.34766 0.23047,-0.6875 0.35547,-1.02734c0.125,-0.33203 0.25,-0.66797 0.39063,-0.99609c0.14844,-0.35156 0.3125,-0.69531 0.48047,-1.03906c0.10938,-0.22266 0.21875,-0.45312 0.33594,-0.67187c0.22266,-0.41797 0.46875,-0.82422 0.72656,-1.22656c0.08594,-0.14062 0.16406,-0.28516 0.25391,-0.42187c0.35547,-0.53516 0.73828,-1.05469 1.14844,-1.55859c0.09766,-0.125 0.20703,-0.23828 0.30859,-0.35937c0.32422,-0.38281 0.66016,-0.75781 1.01172,-1.125c0.23047,-0.23047 0.46094,-0.46094 0.69922,-0.68359c0.10156,-0.09375 0.20313,-0.19531 0.30859,-0.28906c0.36328,-0.32422 0.73828,-0.63672 1.12109,-0.9375c0.12891,-0.10156 0.26563,-0.19531 0.39844,-0.29297c0.26172,-0.19531 0.53125,-0.38672 0.80078,-0.56641c0.18359,-0.125 0.36719,-0.24609 0.55469,-0.35937c0.23047,-0.14453 0.46484,-0.28125 0.69922,-0.41797c0.41016,-0.23437 0.82813,-0.45703 1.25391,-0.66016c0.15625,-0.07812 0.30859,-0.16016 0.46484,-0.23047c0.29688,-0.13672 0.59375,-0.25781 0.89453,-0.37891c0.125,-0.05078 0.25,-0.09766 0.37891,-0.14844c0.32422,-0.12109 0.65234,-0.24609 0.98438,-0.35156c0.00781,-0.00391 0.01172,-0.00391 0.01953,-0.00391c0.76953,-0.24609 1.55078,-0.45312 2.34375,-0.61328l0.03125,-0.00391c0.37109,-0.07422 0.74609,-0.13672 1.12109,-0.1875c0.07813,-0.01172 0.15625,-0.02344 0.23438,-0.03125c1.05469,-0.14062 2.125,-0.19531 3.19531,-0.17187c0.21484,0.00391 0.42578,0.00781 0.64063,0.01953c0.26172,0.01563 0.52344,0.03125 0.78906,0.05469c0.35547,0.03125 0.71484,0.07813 1.07813,0.12891c0.11719,0.01563 0.23828,0.02734 0.35547,0.04688c0.54688,0.08594 1.05859,-0.28516 1.14453,-0.82812v-0.00391c0.08984,-0.54687 -0.28125,-1.05859 -0.82812,-1.14844c-0.125,-0.01953 -0.25,-0.02344 -0.375,-0.04297c-0.39844,-0.05859 -0.80078,-0.10547 -1.20312,-0.14453c-0.27734,-0.02344 -0.55078,-0.03906 -0.82812,-0.05469c-0.25781,-0.01562 -0.51172,-0.02344 -0.76562,-0.02734c-1.12891,-0.02344 -2.24609,0.03906 -3.34766,0.17578c-0.14844,0.01953 -0.29297,0.03906 -0.4375,0.05859c-0.36719,0.05469 -0.73047,0.11328 -1.09375,0.1875c-0.11328,0.01953 -0.22266,0.04688 -0.33594,0.07031c-0.67187,0.14453 -1.33984,0.3125 -1.99219,0.51563c-0.14453,0.04297 -0.28516,0.08203 -0.42969,0.12891c-0.30078,0.10156 -0.59766,0.21094 -0.89844,0.32031c-0.22266,0.08594 -0.44531,0.17188 -0.66406,0.26172c-0.25781,0.10547 -0.51953,0.21094 -0.77344,0.32813c-0.44531,0.20313 -0.89062,0.41797 -1.32422,0.64844c-0.14453,0.07813 -0.28516,0.16406 -0.42969,0.24219c-0.35156,0.19922 -0.69922,0.40234 -1.03906,0.61719c-0.14844,0.09375 -0.29687,0.19141 -0.44531,0.28906c-0.375,0.25 -0.74219,0.51172 -1.10156,0.78125c-0.08203,0.0625 -0.16797,0.12109 -0.25,0.18359c-0.44922,0.34766 -0.88672,0.71484 -1.3125,1.09766c-0.07031,0.0625 -0.13281,0.125 -0.20312,0.1875c-0.22266,0.20703 -0.44922,0.41406 -0.66797,0.62891c-0.07812,0.07813 -0.14453,0.16406 -0.22266,0.24609c-0.35156,0.36328 -0.69141,0.74609 -1.02344,1.13672c-0.13672,0.15625 -0.28125,0.3125 -0.41016,0.47266c-0.43359,0.53906 -0.84766,1.09766 -1.23437,1.67578c-0.11328,0.17578 -0.21094,0.35156 -0.31641,0.52734c-0.26562,0.42188 -0.52344,0.84375 -0.76172,1.28516c-0.13281,0.25 -0.25391,0.50391 -0.37891,0.75781c-0.12109,0.25 -0.25781,0.49219 -0.375,0.75c-0.08984,0.20313 -0.16797,0.40625 -0.25,0.60938c-0.03516,0.07813 -0.07031,0.15625 -0.10156,0.23828c-0.26172,0.65234 -0.49219,1.3125 -0.69141,1.97656c-0.00781,0.01953 -0.01172,0.03906 -0.01953,0.05859c-0.85547,2.89063 -1.11328,5.84375 -0.83594,8.72266c0.00391,0.00781 0.00391,0.01563 0.00781,0.02344c0.06641,0.69141 0.16406,1.375 0.29297,2.05078c0.01563,0.09375 0.03906,0.1875 0.05859,0.28125c0.11719,0.59766 0.26172,1.18359 0.42969,1.76953c0.04688,0.17188 0.10156,0.33984 0.15234,0.50781c0.16016,0.51563 0.33594,1.02344 0.53125,1.52344c0.08203,0.21484 0.16797,0.42578 0.26172,0.63672c0.19531,0.46875 0.41016,0.92969 0.63672,1.38281c0.10938,0.21484 0.21875,0.42578 0.33594,0.63281c0.25,0.46875 0.52344,0.92188 0.80469,1.37109c0.10938,0.17188 0.21875,0.33984 0.33203,0.50391c0.33594,0.5 0.69141,0.98047 1.06641,1.45313c0.08203,0.10156 0.16016,0.20703 0.24609,0.30859c0.4375,0.53125 0.90234,1.04688 1.39063,1.53906c0.02734,0.02734 0.05078,0.05859 0.07422,0.08594c0.00781,0.00391 0.01563,0.00391 0.01953,0.00781c1.92187,1.92188 4.21094,3.53516 6.83594,4.71094c3.04688,1.36719 6.23438,2.01563 9.375,2.01563c6.07422,0 11.96484,-2.42187 16.28906,-6.73047c0.00391,-0.00391 0.00781,-0.00391 0.00781,-0.00781c0.08203,-0.07812 0.14844,-0.16406 0.22656,-0.24609c0.32031,-0.32422 0.63672,-0.66016 0.9375,-1.01172c0.07031,-0.07812 0.12891,-0.16406 0.19531,-0.24219c0.3125,-0.37109 0.61328,-0.75 0.90234,-1.14062c0.03125,-0.04687 0.0625,-0.08984 0.09375,-0.13672c0.90625,-1.25 1.71094,-2.60547 2.36719,-4.07422c1.92969,-4.30078 2.46484,-9.05859 1.61719,-13.61719c-0.01562,-0.08984 -0.03125,-0.17578 -0.04687,-0.26172c-0.10156,-0.5 -0.21094,-1 -0.34375,-1.49609c-0.03516,-0.14062 -0.08594,-0.27734 -0.125,-0.42187c-0.09766,-0.33203 -0.19922,-0.66797 -0.30859,-1c-0.07422,-0.21094 -0.14844,-0.42187 -0.22656,-0.63281c-0.10156,-0.26953 -0.21094,-0.53516 -0.32031,-0.80078l3.03125,-3.02734c1.78516,3.67188 2.73438,7.73438 2.73438,11.84766c0,14.88672 -12.11328,27 -27,27c-14.88672,0 -27,-12.11328 -27,-27c0,-14.88672 12.11328,-27 27,-27zM58,10.41406l2.58594,2.58594l-29.58594,29.58594l-13.58594,-13.58594l2.58594,-2.58594l10.29297,10.29297c0.39063,0.39063 1.02344,0.39063 1.41406,0zM38.65625,11.38672c-0.38672,0.01563 -0.74609,0.26172 -0.89062,0.64844c-0.19531,0.51953 0.06641,1.09375 0.58594,1.28906c0.71484,0.26563 1.41797,0.57422 2.10156,0.91406c0.14453,0.07422 0.29688,0.10938 0.44922,0.10938c0.36328,0 0.71484,-0.19922 0.89453,-0.55078c0.24609,-0.49219 0.04688,-1.09375 -0.44531,-1.34375c-0.74219,-0.375 -1.51953,-0.71094 -2.30078,-1.00391c-0.12891,-0.04687 -0.26172,-0.06641 -0.39453,-0.0625z"></path></g></g></svg>