<svg width="102" height="58" viewBox="0 0 102 58" fill="none" xmlns="http://www.w3.org/2000/svg">
<path d="M0.676136 45.9119V44.8182H8.3125V45.9119H5.1108V55H3.87784V45.9119H0.676136ZM12.1506 55.1591C11.4148 55.1591 10.7801 54.9967 10.2464 54.6719C9.71615 54.3438 9.30682 53.8864 9.01847 53.2997C8.73343 52.7098 8.59091 52.0237 8.59091 51.2415C8.59091 50.4593 8.73343 49.7699 9.01847 49.1733C9.30682 48.5734 9.70786 48.1061 10.2216 47.7713C10.7386 47.4332 11.3419 47.2642 12.0312 47.2642C12.429 47.2642 12.8217 47.3305 13.2095 47.4631C13.5973 47.5956 13.9503 47.8111 14.2685 48.1094C14.5866 48.4044 14.8402 48.7955 15.0291 49.2827C15.218 49.7699 15.3125 50.3698 15.3125 51.0824V51.5795H9.42614V50.5653H14.1193C14.1193 50.1345 14.0331 49.75 13.8608 49.4119C13.6918 49.0739 13.4498 48.8071 13.1349 48.6115C12.8234 48.416 12.4555 48.3182 12.0312 48.3182C11.5639 48.3182 11.1596 48.4342 10.8182 48.6662C10.4801 48.8949 10.2199 49.1932 10.0376 49.5611C9.85535 49.929 9.7642 50.3234 9.7642 50.7443V51.4205C9.7642 51.9972 9.86364 52.486 10.0625 52.8871C10.2647 53.2848 10.5447 53.5881 10.9027 53.7969C11.2607 54.0024 11.6766 54.1051 12.1506 54.1051C12.4588 54.1051 12.7372 54.062 12.9858 53.9759C13.2377 53.8864 13.4548 53.7538 13.6371 53.5781C13.8194 53.3991 13.9602 53.1771 14.0597 52.9119L15.1932 53.2301C15.0739 53.6146 14.8733 53.9527 14.5916 54.2443C14.3099 54.5327 13.9619 54.758 13.5476 54.9205C13.1333 55.0795 12.6676 55.1591 12.1506 55.1591ZM16.8786 55V54.1051L21.2138 48.5369V48.4574H17.0178V47.3636H22.7251V48.2983L18.5092 53.8267V53.9062H22.8643V55H16.8786ZM28.271 44.3409L24.9897 56.5312H23.9158L27.1971 44.3409H28.271ZM32.9828 47.3636V48.358H29.0254V47.3636H32.9828ZM30.1788 45.5341H31.3521V52.8125C31.3521 53.1439 31.4002 53.3925 31.4963 53.5582C31.5957 53.7206 31.7217 53.83 31.8741 53.8864C32.0299 53.9394 32.194 53.9659 32.3663 53.9659C32.4956 53.9659 32.6016 53.9593 32.6845 53.946C32.7673 53.9295 32.8336 53.9162 32.8833 53.9062L33.122 54.9602C33.0424 54.9901 32.9314 55.0199 32.7889 55.0497C32.6464 55.0829 32.4657 55.0994 32.247 55.0994C31.9155 55.0994 31.5907 55.0282 31.2725 54.8857C30.9577 54.7431 30.6958 54.526 30.487 54.2344C30.2815 53.9427 30.1788 53.5748 30.1788 53.1307V45.5341ZM34.5289 55V54.1051L38.8642 48.5369V48.4574H34.6681V47.3636H40.3755V48.2983L36.1596 53.8267V53.9062H40.5147V55H34.5289ZM42.481 55V44.8182H46.0407C46.7499 44.8182 47.3349 44.9408 47.7956 45.1861C48.2563 45.428 48.5994 45.7545 48.8248 46.1655C49.0501 46.5732 49.1628 47.0256 49.1628 47.5227C49.1628 47.9602 49.0849 48.3215 48.9292 48.6065C48.7767 48.8916 48.5745 49.117 48.3226 49.2827C48.074 49.4484 47.8039 49.571 47.5123 49.6506V49.75C47.8238 49.7699 48.137 49.8793 48.4519 50.0781C48.7668 50.277 49.0302 50.562 49.2424 50.9332C49.4545 51.3045 49.5605 51.7585 49.5605 52.2955C49.5605 52.8059 49.4445 53.2649 49.2125 53.6726C48.9805 54.0803 48.6143 54.4034 48.1138 54.642C47.6133 54.8807 46.9621 55 46.16 55H42.481ZM43.714 53.9062H46.16C46.9654 53.9062 47.5371 53.7505 47.8752 53.4389C48.2166 53.1241 48.3873 52.7429 48.3873 52.2955C48.3873 51.9508 48.2994 51.6326 48.1238 51.3409C47.9481 51.0459 47.6979 50.8106 47.373 50.6349C47.0482 50.456 46.6638 50.3665 46.2196 50.3665H43.714V53.9062ZM43.714 49.2926H46.0009C46.3721 49.2926 46.7069 49.2197 47.0051 49.0739C47.3068 48.928 47.5454 48.7225 47.7211 48.4574C47.9 48.1922 47.9895 47.8807 47.9895 47.5227C47.9895 47.0753 47.8337 46.6958 47.5222 46.3842C47.2106 46.0694 46.7168 45.9119 46.0407 45.9119H43.714V49.2926ZM51.0297 45.9119V44.8182H58.666V45.9119H55.4643V55H54.2314V45.9119H51.0297ZM68.3382 48H67.1053C67.0324 47.6454 66.9048 47.3338 66.7225 47.0653C66.5435 46.7969 66.3248 46.5715 66.0662 46.3892C65.811 46.2036 65.5276 46.0644 65.2161 45.9716C64.9045 45.8788 64.5797 45.8324 64.2417 45.8324C63.6252 45.8324 63.0667 45.9882 62.5662 46.2997C62.0691 46.6113 61.673 47.0703 61.378 47.6768C61.0864 48.2834 60.9405 49.0275 60.9405 49.9091C60.9405 50.7907 61.0864 51.5348 61.378 52.1413C61.673 52.7479 62.0691 53.2069 62.5662 53.5185C63.0667 53.83 63.6252 53.9858 64.2417 53.9858C64.5797 53.9858 64.9045 53.9394 65.2161 53.8466C65.5276 53.7538 65.811 53.6162 66.0662 53.4339C66.3248 53.2483 66.5435 53.0213 66.7225 52.7528C66.9048 52.4811 67.0324 52.1695 67.1053 51.8182H68.3382C68.2454 52.3385 68.0764 52.8042 67.8311 53.2152C67.5859 53.6262 67.281 53.9759 66.9164 54.2642C66.5518 54.5492 66.1425 54.7663 65.6884 54.9155C65.2376 55.0646 64.7554 55.1392 64.2417 55.1392C63.3733 55.1392 62.601 54.9271 61.9249 54.5028C61.2488 54.0786 60.7168 53.4754 60.329 52.6932C59.9412 51.911 59.7473 50.983 59.7473 49.9091C59.7473 48.8352 59.9412 47.9072 60.329 47.125C60.7168 46.3428 61.2488 45.7396 61.9249 45.3153C62.601 44.8911 63.3733 44.679 64.2417 44.679C64.7554 44.679 65.2376 44.7536 65.6884 44.9027C66.1425 45.0518 66.5518 45.2706 66.9164 45.5589C67.281 45.844 67.5859 46.192 67.8311 46.603C68.0764 47.0107 68.2454 47.4763 68.3382 48ZM74.2681 55V44.8182H77.7085C78.5072 44.8182 79.1602 44.9624 79.6673 45.2507C80.1777 45.5357 80.5555 45.9219 80.8008 46.4091C81.046 46.8963 81.1687 47.4399 81.1687 48.0398C81.1687 48.6397 81.046 49.1849 80.8008 49.6754C80.5588 50.166 80.1843 50.5571 79.6772 50.8487C79.1701 51.1371 78.5205 51.2812 77.7283 51.2812H75.2624V50.1875H77.6886C78.2354 50.1875 78.6746 50.093 79.006 49.9041C79.3375 49.7152 79.5778 49.46 79.7269 49.1385C79.8794 48.8137 79.9556 48.4474 79.9556 48.0398C79.9556 47.6321 79.8794 47.2675 79.7269 46.946C79.5778 46.6245 79.3358 46.3726 79.0011 46.1903C78.6663 46.0047 78.2222 45.9119 77.6687 45.9119H75.5011V55H74.2681ZM86.016 55.1591C85.3266 55.1591 84.7217 54.995 84.2013 54.6669C83.6843 54.3388 83.2799 53.8797 82.9883 53.2898C82.6999 52.6998 82.5558 52.0104 82.5558 51.2216C82.5558 50.4261 82.6999 49.7318 82.9883 49.1385C83.2799 48.5452 83.6843 48.0845 84.2013 47.7564C84.7217 47.4283 85.3266 47.2642 86.016 47.2642C86.7054 47.2642 87.3086 47.4283 87.8256 47.7564C88.346 48.0845 88.7504 48.5452 89.0387 49.1385C89.3304 49.7318 89.4762 50.4261 89.4762 51.2216C89.4762 52.0104 89.3304 52.6998 89.0387 53.2898C88.7504 53.8797 88.346 54.3388 87.8256 54.6669C87.3086 54.995 86.7054 55.1591 86.016 55.1591ZM86.016 54.1051C86.5397 54.1051 86.9705 53.9709 87.3086 53.7024C87.6467 53.4339 87.8969 53.081 88.0593 52.6435C88.2217 52.206 88.3029 51.732 88.3029 51.2216C88.3029 50.7112 88.2217 50.2356 88.0593 49.7947C87.8969 49.3539 87.6467 48.9976 87.3086 48.7259C86.9705 48.4541 86.5397 48.3182 86.016 48.3182C85.4923 48.3182 85.0614 48.4541 84.7234 48.7259C84.3853 48.9976 84.1351 49.3539 83.9727 49.7947C83.8103 50.2356 83.729 50.7112 83.729 51.2216C83.729 51.732 83.8103 52.206 83.9727 52.6435C84.1351 53.081 84.3853 53.4339 84.7234 53.7024C85.0614 53.9709 85.4923 54.1051 86.016 54.1051ZM94.3695 55.1591C93.6801 55.1591 93.0752 54.995 92.5549 54.6669C92.0378 54.3388 91.6335 53.8797 91.3418 53.2898C91.0534 52.6998 90.9093 52.0104 90.9093 51.2216C90.9093 50.4261 91.0534 49.7318 91.3418 49.1385C91.6335 48.5452 92.0378 48.0845 92.5549 47.7564C93.0752 47.4283 93.6801 47.2642 94.3695 47.2642C95.0589 47.2642 95.6621 47.4283 96.1792 47.7564C96.6995 48.0845 97.1039 48.5452 97.3922 49.1385C97.6839 49.7318 97.8297 50.4261 97.8297 51.2216C97.8297 52.0104 97.6839 52.6998 97.3922 53.2898C97.1039 53.8797 96.6995 54.3388 96.1792 54.6669C95.6621 54.995 95.0589 55.1591 94.3695 55.1591ZM94.3695 54.1051C94.8932 54.1051 95.324 53.9709 95.6621 53.7024C96.0002 53.4339 96.2504 53.081 96.4128 52.6435C96.5752 52.206 96.6564 51.732 96.6564 51.2216C96.6564 50.7112 96.5752 50.2356 96.4128 49.7947C96.2504 49.3539 96.0002 48.9976 95.6621 48.7259C95.324 48.4541 94.8932 48.3182 94.3695 48.3182C93.8458 48.3182 93.415 48.4541 93.0769 48.7259C92.7388 48.9976 92.4886 49.3539 92.3262 49.7947C92.1638 50.2356 92.0826 50.7112 92.0826 51.2216C92.0826 51.732 92.1638 52.206 92.3262 52.6435C92.4886 53.081 92.7388 53.4339 93.0769 53.7024C93.415 53.9709 93.8458 54.1051 94.3695 54.1051ZM100.794 44.8182V55H99.6207V44.8182H100.794Z" fill="#1E1E1E"/>
<path d="M64.9658 28.8425V25.6357" stroke="#2C7DF7" stroke-width="2.13764" stroke-linejoin="bevel"/>
<path d="M60.3474 25.4893V28.8425" stroke="#2C7DF7" stroke-width="2.13764" stroke-linejoin="bevel"/>
<path d="M65.0001 32.4667C73.5421 32.4667 80.4668 25.542 80.4668 17C80.4668 8.45799 73.5421 1.53333 65.0001 1.53333C56.4581 1.53333 49.5334 8.45799 49.5334 17C49.5334 25.542 56.4581 32.4667 65.0001 32.4667Z" stroke="#2C7DF7" stroke-width="1.30713" stroke-linecap="round" stroke-linejoin="bevel"/>
<path d="M57.3219 10.2228H69.6323L63.9335 16.7266C65.3343 15.4608 70.7331 15.1486 71.8648 19.4598C72.8942 23.3815 69.5075 26.5897 65.0783 26.5897" stroke="#2C7DF7" stroke-width="2.1625" stroke-linejoin="bevel"/>
<path d="M60.4731 10.2228L60.4788 20.6878C60.4788 22.5367 62.6719 23.5127 64.0475 22.275" stroke="#2C7DF7" stroke-width="2.1625" stroke-linejoin="bevel"/>
<path d="M65.1541 5.22437V10.1573" stroke="#2C7DF7" stroke-width="2.1625" stroke-linejoin="bevel"/>
<path d="M60.4825 5.22437V10.9424" stroke="#2C7DF7" stroke-width="2.1625" stroke-linejoin="bevel"/>
<circle cx="37" cy="17" r="16" fill="#3391F6"/>
<g clip-path="url(#clip0_81_778)">
<path fill-rule="evenodd" clip-rule="evenodd" d="M39.5038 27.6667C37.9206 27.6667 36.7666 27.3081 36.0419 26.568C35.3173 25.8279 34.9667 25.0534 34.9667 24.1989C34.9667 23.8975 35.0258 23.6305 35.1637 23.4206C35.2818 23.2108 35.4551 23.043 35.6717 22.9285C35.8883 22.8141 36.1601 22.7378 36.4752 22.7378C36.7902 22.7378 37.062 22.795 37.2786 22.9285C37.4952 23.043 37.6685 23.2108 37.7867 23.4206C37.9048 23.6305 37.9836 23.8937 37.9836 24.1989C37.9836 24.5766 37.8851 24.8818 37.7079 25.1069C37.5307 25.3358 37.2983 25.5036 37.0423 25.5799C37.2589 25.8622 37.6094 26.072 38.0781 26.2056C38.5468 26.3391 39.0155 26.3963 39.4881 26.3963C40.1537 26.3963 40.7405 26.2246 41.2683 25.8851C41.796 25.5456 42.1859 25.0344 42.4419 24.3706C42.6979 23.7068 42.8121 22.9514 42.8121 22.0968C42.8121 21.1698 42.6743 20.3916 42.4025 19.7468C42.1268 19.083 41.7369 18.5909 41.2092 18.2895C40.6814 17.969 40.1143 17.8164 39.4881 17.8164C39.0785 17.8164 38.5901 17.9881 37.9836 18.3086L36.8808 18.8198V18.2895L41.8669 11.8498H34.9667V18.5375C34.9667 19.0868 35.0849 19.5408 35.337 19.9032C35.593 20.2618 35.9829 20.4335 36.4909 20.4335C36.9005 20.4335 37.2747 20.3 37.6449 20.0368C38.0151 19.7697 38.3302 19.4493 38.6019 19.0906C38.6413 19.0143 38.6807 18.9571 38.7201 18.938C38.7792 18.8999 38.8185 18.8808 38.8776 18.8808C38.9761 18.8808 39.0745 18.919 39.2085 19.0143C39.3266 19.1479 39.3857 19.2967 39.3857 19.4683C39.3857 19.5446 39.3463 19.6591 39.3266 19.8079C39.0509 20.4335 38.661 20.9066 38.1529 21.227C37.6449 21.5475 37.0974 21.7192 36.4909 21.7192C34.9864 21.7192 33.9664 21.4369 33.3796 20.8684C32.8124 20.3 32.521 19.5217 32.521 18.5565V11.8498H29V10.5985H32.5407V7.75636L31.7372 6.9781V6.33337H34.0845L34.9628 6.76828V10.5794L44.0961 10.5604L44.994 11.4302L39.4054 16.8703C39.7362 16.7368 40.0907 16.6605 40.4609 16.6224C41.0674 16.6224 41.7527 16.8131 42.4931 17.1908C43.2572 17.5494 43.844 18.0606 44.2536 18.7053C44.6632 19.3501 44.9389 19.9566 45.057 20.5441C45.1752 21.1317 45.254 21.6429 45.254 22.1159C45.254 23.1574 45.0177 24.1226 44.5687 25.0153C44.1197 25.9042 43.4344 26.5871 42.4971 27.022C41.5755 27.4569 40.579 27.6667 39.5038 27.6667Z" fill="white"/>
</g>
<defs>
<clipPath id="clip0_81_778">
<rect width="21.3333" height="21.3333" fill="white" transform="translate(26.3334 6.33337)"/>
</clipPath>
</defs>
</svg>
