<svg width="32" height="32" viewBox="0 0 32 32" fill="none" xmlns="http://www.w3.org/2000/svg">
<path d="M27.9736 3.41352C27.1193 2.56909 25.9962 2.05067 24.7993 1.94836C23.6025 1.84606 22.4077 2.16633 21.4225 2.85352C24.5894 4.17206 27.1765 6.58561 28.7114 9.65352C29.3038 8.68069 29.5531 7.53735 29.4194 6.40619C29.2856 5.27503 28.7766 4.22135 27.9736 3.41352Z" fill="black"/>
<path d="M10.1513 3.04905C9.17017 2.26983 7.93775 1.87669 6.68664 1.94383C5.43553 2.01098 4.25227 2.53375 3.36018 3.4135C2.47545 4.30408 1.95146 5.49049 1.88909 6.74428C1.82673 7.99808 2.23041 9.23062 3.0224 10.2046C4.44865 7.0313 6.98333 4.48714 10.1513 3.04905Z" fill="black"/>
<path d="M14.578 3.6358C12.2572 3.9069 10.0596 4.82591 8.23675 6.28765C6.41388 7.74938 5.03936 9.69479 4.27049 11.9012C3.50162 14.1077 3.36947 16.486 3.88916 18.764C4.40885 21.0421 5.55938 23.1278 7.20909 24.7825L4.94242 27.0491C4.86012 27.1332 4.79519 27.2326 4.75132 27.3417C4.70745 27.4509 4.68551 27.5676 4.68675 27.6852C4.68799 27.8028 4.71238 27.9191 4.75854 28.0273C4.80469 28.1355 4.87171 28.2335 4.95575 28.3158C5.0398 28.3981 5.13923 28.463 5.24837 28.5069C5.35751 28.5508 5.47423 28.5727 5.59185 28.5715C5.70947 28.5702 5.82569 28.5458 5.93389 28.4997C6.04208 28.4535 6.14012 28.3865 6.22242 28.3025L8.58686 25.938C10.7491 27.5743 13.3896 28.4538 16.1011 28.4409C18.8127 28.4281 21.4447 27.5236 23.5913 25.8669L26.0269 28.3025C26.1969 28.4481 26.4156 28.5242 26.6394 28.5155C26.8631 28.5069 27.0753 28.4142 27.2336 28.2559C27.3919 28.0975 27.4846 27.8853 27.4933 27.6616C27.5019 27.4379 27.4258 27.2192 27.2802 27.0491L24.8891 24.6936C26.6834 22.8555 27.865 20.5073 28.2718 17.971C28.6785 15.4348 28.2904 12.8348 27.1608 10.5279C26.0312 8.22091 24.2154 6.32004 21.9625 5.08608C19.7097 3.85211 17.1302 3.34551 14.578 3.6358ZM17.4046 26.578C15.1954 26.8674 12.951 26.4576 10.9865 25.4063C9.02198 24.355 7.43601 22.7149 6.4512 20.7162C5.46639 18.7176 5.13219 16.4607 5.49551 14.2624C5.85883 12.0641 6.90142 10.0347 8.47694 8.45921C10.0525 6.88369 12.0818 5.84109 14.2801 5.47777C16.4784 5.11446 18.7353 5.44866 20.734 6.43346C22.7326 7.41827 24.3727 9.00424 25.4241 10.9687C26.4754 12.9332 26.8851 15.1777 26.5958 17.3869C26.2905 19.7175 25.224 21.8821 23.5619 23.5442C21.8998 25.2062 19.7353 26.2728 17.4046 26.578Z" fill="black"/>
<path d="M22.1514 18.0802L16.7647 15.4136V8.44469C16.7647 8.23252 16.6804 8.02904 16.5304 7.87901C16.3803 7.72898 16.1769 7.64469 15.9647 7.64469C15.7525 7.64469 15.549 7.72898 15.399 7.87901C15.249 8.02904 15.1647 8.23252 15.1647 8.44469V16.4447L21.4402 19.5558C21.6312 19.6489 21.8513 19.6624 22.0522 19.5932C22.2531 19.524 22.4182 19.3779 22.5114 19.1869C22.6045 18.996 22.6179 18.7758 22.5487 18.575C22.4796 18.3741 22.3334 18.2089 22.1425 18.1158L22.1514 18.0802Z" fill="black"/>
</svg>
