<svg width="73" height="58" viewBox="0 0 73 58" fill="none" xmlns="http://www.w3.org/2000/svg">
<path d="M61.7958 5.49399C57.0736 3.28459 52.0244 1.67889 46.7456 0.764587C46.0973 1.93669 45.3399 3.51319 44.8177 4.76729C39.2062 3.92339 33.6463 3.92339 28.138 4.76729C27.6159 3.51319 26.8413 1.93669 26.1872 0.764587C20.9027 1.67889 15.8477 3.29049 11.1255 5.50569C1.60078 19.8988 -0.981215 33.9344 0.309785 47.7707C6.62708 52.4883 12.7493 55.3541 18.7682 57.2294C20.2543 55.1841 21.5797 53.0099 22.7215 50.7185C20.5469 49.8922 18.4641 48.8725 16.4961 47.6887C17.0182 47.3019 17.5289 46.8975 18.0223 46.4814C30.0257 52.0957 43.0677 52.0957 54.9277 46.4814C55.4269 46.8975 55.9375 47.3019 56.4539 47.6887C54.4801 48.8783 52.3916 49.898 50.217 50.7244C51.3588 53.0099 52.6785 55.19 54.1703 57.2352C60.195 55.3599 66.3229 52.4942 72.6402 47.7707C74.155 31.7309 70.0525 17.8242 61.7958 5.49399ZM24.3568 39.2615C20.7535 39.2615 17.7985 35.8976 17.7985 31.8012C17.7985 27.7048 20.6904 24.3351 24.3568 24.3351C28.0233 24.3351 30.9782 27.6989 30.9151 31.8012C30.9208 35.8976 28.0233 39.2615 24.3568 39.2615ZM48.5932 39.2615C44.9899 39.2615 42.0349 35.8976 42.0349 31.8012C42.0349 27.7048 44.9267 24.3351 48.5932 24.3351C52.2596 24.3351 55.2146 27.6989 55.1515 31.8012C55.1515 35.8976 52.2596 39.2615 48.5932 39.2615Z" fill="#5865F2"/>
</svg>
