<svg width="21" height="22" viewBox="0 0 21 22" fill="none" xmlns="http://www.w3.org/2000/svg">
<path d="M10.5 1.375C5.42637 1.375 1.3125 5.68477 1.3125 11C1.3125 16.3152 5.42637 20.625 10.5 20.625C15.5736 20.625 19.6875 16.3152 19.6875 11C19.6875 5.68477 15.5736 1.375 10.5 1.375ZM10.5 18.9922C6.2877 18.9922 2.87109 15.4129 2.87109 11C2.87109 6.58711 6.2877 3.00781 10.5 3.00781C14.7123 3.00781 18.1289 6.58711 18.1289 11C18.1289 15.4129 14.7123 18.9922 10.5 18.9922Z" fill="#FF4E4E"/>
<path d="M10.5 3.00781C6.2877 3.00781 2.87109 6.58711 2.87109 11C2.87109 15.4129 6.2877 18.9922 10.5 18.9922C14.7123 18.9922 18.1289 15.4129 18.1289 11C18.1289 6.58711 14.7123 3.00781 10.5 3.00781ZM9.84375 6.35938C9.84375 6.26484 9.91758 6.1875 10.0078 6.1875H10.9922C11.0824 6.1875 11.1562 6.26484 11.1562 6.35938V12.2031C11.1562 12.2977 11.0824 12.375 10.9922 12.375H10.0078C9.91758 12.375 9.84375 12.2977 9.84375 12.2031V6.35938ZM10.5 15.8125C10.2424 15.807 9.99714 15.6959 9.81682 15.5031C9.63651 15.3103 9.53551 15.0512 9.53551 14.7812C9.53551 14.5113 9.63651 14.2522 9.81682 14.0594C9.99714 13.8666 10.2424 13.7555 10.5 13.75C10.7576 13.7555 11.0029 13.8666 11.1832 14.0594C11.3635 14.2522 11.4645 14.5113 11.4645 14.7812C11.4645 15.0512 11.3635 15.3103 11.1832 15.5031C11.0029 15.6959 10.7576 15.807 10.5 15.8125Z" fill="#F24E1E" fill-opacity="0.1"/>
<path d="M10.0078 12.375H10.9922C11.0824 12.375 11.1562 12.2977 11.1562 12.2031V6.35938C11.1562 6.26484 11.0824 6.1875 10.9922 6.1875H10.0078C9.91758 6.1875 9.84375 6.26484 9.84375 6.35938V12.2031C9.84375 12.2977 9.91758 12.375 10.0078 12.375ZM9.51562 14.7812C9.51563 15.0548 9.61934 15.3171 9.80394 15.5105C9.98855 15.7038 10.2389 15.8125 10.5 15.8125C10.7611 15.8125 11.0115 15.7038 11.1961 15.5105C11.3807 15.3171 11.4844 15.0548 11.4844 14.7812C11.4844 14.5077 11.3807 14.2454 11.1961 14.052C11.0115 13.8586 10.7611 13.75 10.5 13.75C10.2389 13.75 9.98855 13.8586 9.80394 14.052C9.61934 14.2454 9.51563 14.5077 9.51562 14.7812Z" fill="#FF4E4E"/>
</svg>
