<svg width="32" height="32" viewBox="0 0 32 32" fill="none" xmlns="http://www.w3.org/2000/svg">
<path d="M27.5299 3.56567L17.5361 10.9881L19.3842 6.60899L27.5299 3.56567Z" fill="#E2761B" stroke="#E2761B" stroke-linecap="round" stroke-linejoin="round"/>
<path d="M4.45996 3.56567L14.3733 11.0585L12.6156 6.60899L4.45996 3.56567Z" fill="#E4761B" stroke="#E4761B" stroke-linecap="round" stroke-linejoin="round"/>
<path d="M23.9351 20.771L21.2734 24.8488L26.9684 26.4157L28.6055 20.8614L23.9351 20.771Z" fill="#E4761B" stroke="#E4761B" stroke-linecap="round" stroke-linejoin="round"/>
<path d="M3.40527 20.8614L5.03239 26.4157L10.7273 24.8488L8.06566 20.771L3.40527 20.8614Z" fill="#E4761B" stroke="#E4761B" stroke-linecap="round" stroke-linejoin="round"/>
<path d="M10.4063 13.8808L8.81934 16.2813L14.4741 16.5324L14.2732 10.4558L10.4063 13.8808Z" fill="#E4761B" stroke="#E4761B" stroke-linecap="round" stroke-linejoin="round"/>
<path d="M21.5848 13.8808L17.6677 10.3855L17.5371 16.5324L23.1818 16.2813L21.5848 13.8808Z" fill="#E4761B" stroke="#E4761B" stroke-linecap="round" stroke-linejoin="round"/>
<path d="M10.7275 24.8486L14.1224 23.1914L11.1896 20.9014L10.7275 24.8486Z" fill="#E4761B" stroke="#E4761B" stroke-linecap="round" stroke-linejoin="round"/>
<path d="M17.8691 23.1914L21.274 24.8486L20.802 20.9014L17.8691 23.1914Z" fill="#E4761B" stroke="#E4761B" stroke-linecap="round" stroke-linejoin="round"/>
<path d="M21.274 24.8487L17.8691 23.1914L18.1403 25.4111L18.1102 26.3452L21.274 24.8487Z" fill="#D7C1B3" stroke="#D7C1B3" stroke-linecap="round" stroke-linejoin="round"/>
<path d="M10.7275 24.8487L13.8914 26.3452L13.8713 25.4111L14.1224 23.1914L10.7275 24.8487Z" fill="#D7C1B3" stroke="#D7C1B3" stroke-linecap="round" stroke-linejoin="round"/>
<path d="M13.9408 19.4349L11.1084 18.6013L13.1071 17.6873L13.9408 19.4349Z" fill="#233447" stroke="#233447" stroke-linecap="round" stroke-linejoin="round"/>
<path d="M18.0488 19.4349L18.8825 17.6873L20.8913 18.6013L18.0488 19.4349Z" fill="#233447" stroke="#233447" stroke-linecap="round" stroke-linejoin="round"/>
<path d="M10.7271 24.8488L11.2092 20.771L8.06543 20.8614L10.7271 24.8488Z" fill="#CD6116" stroke="#CD6116" stroke-linecap="round" stroke-linejoin="round"/>
<path d="M20.791 20.771L21.2731 24.8488L23.9348 20.8614L20.791 20.771Z" fill="#CD6116" stroke="#CD6116" stroke-linecap="round" stroke-linejoin="round"/>
<path d="M23.1818 16.2812L17.5371 16.5323L18.0594 19.435L18.893 17.6874L20.9018 18.6014L23.1818 16.2812Z" fill="#CD6116" stroke="#CD6116" stroke-linecap="round" stroke-linejoin="round"/>
<path d="M11.1084 18.6014L13.1172 17.6874L13.9408 19.435L14.4731 16.5323L8.81836 16.2812L11.1084 18.6014Z" fill="#CD6116" stroke="#CD6116" stroke-linecap="round" stroke-linejoin="round"/>
<path d="M8.81836 16.2812L11.1887 20.9015L11.1084 18.6014L8.81836 16.2812Z" fill="#E4751F" stroke="#E4751F" stroke-linecap="round" stroke-linejoin="round"/>
<path d="M20.9012 18.6014L20.8008 20.9015L23.1812 16.2812L20.9012 18.6014Z" fill="#E4751F" stroke="#E4751F" stroke-linecap="round" stroke-linejoin="round"/>
<path d="M14.4728 16.5322L13.9404 19.4349L14.6033 22.8599L14.754 18.3502L14.4728 16.5322Z" fill="#E4751F" stroke="#E4751F" stroke-linecap="round" stroke-linejoin="round"/>
<path d="M17.5368 16.5322L17.2656 18.3401L17.3862 22.8599L18.0591 19.4349L17.5368 16.5322Z" fill="#E4751F" stroke="#E4751F" stroke-linecap="round" stroke-linejoin="round"/>
<path d="M18.0587 19.435L17.3857 22.86L17.8679 23.1914L20.8007 20.9014L20.9011 18.6013L18.0587 19.435Z" fill="#F6851B" stroke="#F6851B" stroke-linecap="round" stroke-linejoin="round"/>
<path d="M11.1084 18.6013L11.1888 20.9014L14.1216 23.1914L14.6037 22.86L13.9408 19.435L11.1084 18.6013Z" fill="#F6851B" stroke="#F6851B" stroke-linecap="round" stroke-linejoin="round"/>
<path d="M18.1098 26.3454L18.14 25.4113L17.8889 25.1904H14.1023L13.8713 25.4113L13.8914 26.3454L10.7275 24.8489L11.8324 25.7528L14.0722 27.3096H17.919L20.1688 25.7528L21.2737 24.8489L18.1098 26.3454Z" fill="#C0AD9E" stroke="#C0AD9E" stroke-linecap="round" stroke-linejoin="round"/>
<path d="M17.8686 23.1913L17.3865 22.8599H14.6043L14.1222 23.1913L13.8711 25.411L14.1021 25.1901H17.8887L18.1398 25.411L17.8686 23.1913Z" fill="#161616" stroke="#161616" stroke-linecap="round" stroke-linejoin="round"/>
<path d="M27.9513 11.4703L28.805 7.37233L27.5295 3.56567L17.8672 10.737L21.5834 13.8808L26.8364 15.4175L28.0015 14.0616L27.4993 13.7L28.3028 12.9668L27.6801 12.4847L28.4836 11.872L27.9513 11.4703Z" fill="#763D16" stroke="#763D16" stroke-linecap="round" stroke-linejoin="round"/>
<path d="M3.19336 7.37233L4.04709 11.4703L3.50472 11.872L4.30824 12.4847L3.69556 12.9668L4.49907 13.7L3.99687 14.0616L5.15193 15.4175L10.4049 13.8808L14.1212 10.737L4.4589 3.56567L3.19336 7.37233Z" fill="#763D16" stroke="#763D16" stroke-linecap="round" stroke-linejoin="round"/>
<path d="M26.8372 15.4173L21.5842 13.8806L23.1812 16.2811L20.8008 20.9013L23.9345 20.8612H28.6049L26.8372 15.4173Z" fill="#F6851B" stroke="#F6851B" stroke-linecap="round" stroke-linejoin="round"/>
<path d="M10.4059 13.8806L5.15292 15.4173L3.40527 20.8612H8.06566L11.1893 20.9013L8.81896 16.2811L10.4059 13.8806Z" fill="#F6851B" stroke="#F6851B" stroke-linecap="round" stroke-linejoin="round"/>
<path d="M17.5368 16.5323L17.8682 10.7369L19.3949 6.60889H12.6152L14.1218 10.7369L14.4734 16.5323L14.5939 18.3603L14.6039 22.86H17.3861L17.4062 18.3603L17.5368 16.5323Z" fill="#F6851B" stroke="#F6851B" stroke-linecap="round" stroke-linejoin="round"/>
</svg>
