<svg width="32" height="744" viewBox="0 0 32 744" fill="none" xmlns="http://www.w3.org/2000/svg">
<line x1="15.5" y1="744" x2="15.5" y2="552" stroke="#4F4F4F"/>
<line x1="15.5" y1="192" x2="15.5" y2="-2.18557e-08" stroke="#4F4F4F"/>
<path d="M25.5798 209.131C26.2527 210.55 25.9449 212.57 24.693 214.785C23.4514 216.982 21.3371 219.254 18.6336 221.051C15.9302 222.849 13.1906 223.803 10.9596 223.914C8.71006 224.026 7.09302 223.286 6.42013 221.868C5.74723 220.449 6.05496 218.429 7.30689 216.214C8.54851 214.017 10.6628 211.745 13.3663 209.947C16.0697 208.15 18.8093 207.196 21.0403 207.085C23.2898 206.972 24.9069 207.713 25.5798 209.131Z" stroke="#BDBDBD"/>
<path d="M9.43919 207.061C9.81893 206.969 10.3788 207.036 11.161 207.35C11.9406 207.663 12.8647 208.194 13.8752 208.921C15.8921 210.374 18.1511 212.54 20.1517 215.075C22.1523 217.61 23.4886 220 24.0445 221.808C24.323 222.714 24.3984 223.45 24.2844 223.98C24.17 224.512 23.8793 224.786 23.4996 224.878C23.1198 224.971 22.56 224.903 21.7778 224.589C20.9982 224.276 20.0741 223.746 19.0636 223.018C17.0466 221.565 14.7877 219.399 12.7871 216.864C10.7865 214.329 9.45011 211.939 8.89421 210.131C8.61571 209.225 8.54034 208.489 8.65436 207.959C8.76876 207.427 9.05946 207.153 9.43919 207.061Z" stroke="#BDBDBD"/>
<path d="M21.5 499.455C21.5 495.909 19.3011 493.858 15.6648 493.858C12.0455 493.858 9.86364 495.909 9.86364 499.335L9.86364 503.222L21.5 503.222L21.5 499.455ZM19.9659 501.466L11.3977 501.466L11.3977 499.443C11.3977 496.898 12.9205 495.585 15.6648 495.585C18.4205 495.585 19.9659 496.898 19.9659 499.551L19.9659 501.466ZM21.5 490.075L21.5 482.711L19.9886 482.711L19.9886 488.319L16.4261 488.319L16.4261 483.16L14.9205 483.16L14.9205 488.319L11.375 488.319L11.375 482.779L9.86364 482.779L9.86364 490.075L21.5 490.075ZM13.6477 469.169C11.1591 469.567 9.70454 471.516 9.70454 473.976C9.70454 476.987 11.9602 479.209 15.6818 479.209C19.4034 479.209 21.6591 476.999 21.6591 473.976C21.6591 471.419 20.0568 469.55 17.7557 469.169L17.75 470.942C19.2386 471.243 20.0568 472.493 20.0568 473.965C20.0568 475.959 18.5284 477.465 15.6818 477.465C12.858 477.465 11.3068 475.965 11.3068 473.959C11.3068 472.476 12.142 471.232 13.6477 470.942L13.6477 469.169ZM21.5 465.468L21.5 458.105L19.9886 458.105L19.9886 463.713L16.4261 463.713L16.4261 458.554L14.9205 458.554L14.9205 463.713L11.375 463.713L11.375 458.173L9.86363 458.173L9.86363 465.468L21.5 465.468ZM9.86363 444.836L9.86363 446.574L18.4091 446.574L18.4091 446.682L9.86363 452.603L9.86363 454.228L21.5 454.228L21.5 452.472L12.9659 452.472L12.9659 452.364L21.5 446.449L21.5 444.836L9.86363 444.836ZM11.375 441.249L11.375 437.624L21.5 437.624L21.5 435.874L11.375 435.874L11.375 432.243L9.86363 432.243L9.86363 441.249L11.375 441.249ZM21.5 428.653L21.5 426.897L17.0966 426.897L17.0966 424.511C17.0966 424.471 17.0966 424.437 17.0966 424.397L21.5 422.034L21.5 420.034L16.7898 422.613C16.2614 421.187 15.0739 420.477 13.5114 420.477C11.3693 420.477 9.86363 421.806 9.86363 424.505L9.86363 428.653L21.5 428.653ZM15.5852 426.897L11.3693 426.897L11.3693 424.693C11.3693 422.96 12.1932 422.244 13.5114 422.244C14.8239 422.244 15.5852 422.96 15.5852 424.67L15.5852 426.897ZM21.5 415.757L18.4205 414.689L18.4205 410.144L21.5 409.081L21.5 407.218L9.86363 411.405L9.86363 413.434L21.5 417.621L21.5 415.757ZM16.9432 414.178L11.9773 412.462L11.9773 412.371L16.9432 410.655L16.9432 414.178ZM21.5 403.937L21.5 396.909L19.9886 396.909L19.9886 402.182L9.86363 402.182L9.86363 403.937L21.5 403.937ZM9.86363 391.55L9.86363 393.306L21.5 393.306L21.5 391.55L9.86363 391.55ZM21.5 387.695L21.5 379.376L19.9886 379.376L19.9886 385.547L11.0341 379.428L9.86363 379.428L9.86363 387.746L11.375 387.746L11.375 381.575L20.3295 387.695L21.5 387.695ZM21.5 375.575L21.5 368.211L19.9886 368.211L19.9886 373.819L16.4261 373.819L16.4261 368.66L14.9204 368.66L14.9204 373.819L11.375 373.819L11.375 368.279L9.86363 368.279L9.86363 375.575L21.5 375.575ZM21.5 360.567C21.5 357.022 19.3011 354.97 15.6648 354.97C12.0454 354.97 9.86363 357.022 9.86363 360.448L9.86363 364.334L21.5 364.334L21.5 360.567ZM19.9659 362.578L11.3977 362.578L11.3977 360.556C11.3977 358.01 12.9204 356.698 15.6648 356.698C18.4204 356.698 19.9659 358.01 19.9659 360.664L19.9659 362.578ZM21.5 339.518L21.5 332.155L19.9886 332.155L19.9886 337.763L16.4261 337.763L16.4261 332.604L14.9204 332.604L14.9204 337.763L11.375 337.763L11.375 332.223L9.86363 332.223L9.86363 339.518L21.5 339.518ZM9.86363 327.056L9.86363 329.09L15.6818 325.403L21.5 329.113L21.5 327.068L17.0114 324.272L17.0114 324.181L21.5 321.386L21.5 319.34L15.6818 322.988L9.86363 319.363L9.86363 321.397L14.4148 324.181L14.4148 324.272L9.86363 327.056ZM13.6477 306.654C11.1591 307.051 9.70454 309 9.70454 311.461C9.70454 314.472 11.9602 316.693 15.6818 316.693C19.4034 316.693 21.6591 314.483 21.6591 311.461C21.6591 308.904 20.0568 307.034 17.7557 306.654L17.75 308.426C19.2386 308.728 20.0568 309.978 20.0568 311.449C20.0568 313.443 18.5284 314.949 15.6818 314.949C12.8579 314.949 11.3068 313.449 11.3068 311.443C11.3068 309.961 12.142 308.716 13.6477 308.426L13.6477 306.654ZM21.5 302.953L21.5 301.197L16.4261 301.197L16.4261 295.396L21.5 295.396L21.5 293.635L9.86363 293.635L9.86363 295.396L14.9204 295.396L14.9204 301.197L9.86363 301.197L9.86363 302.953L21.5 302.953ZM21.5 288.495L18.4204 287.427L18.4204 282.881L21.5 281.819L21.5 279.955L9.86363 284.143L9.86363 286.171L21.5 290.359L21.5 288.495ZM16.9432 286.915L11.9773 285.199L11.9773 285.109L16.9432 283.393L16.9432 286.915ZM9.86363 267.283L9.86363 269.021L18.4091 269.021L18.4091 269.129L9.86363 275.05L9.86363 276.675L21.5 276.675L21.5 274.919L12.9659 274.919L12.9659 274.811L21.5 268.896L21.5 267.283L9.86363 267.283ZM13.5398 255.247L13.5398 253.445C11.2727 253.837 9.70453 255.775 9.70453 258.286C9.70453 261.298 11.9716 263.497 15.6875 263.497C19.3693 263.497 21.6591 261.36 21.6591 258.207C21.6591 255.383 19.8068 253.366 16.8693 253.366L15.5454 253.366L15.5454 257.94L16.9943 257.94L16.9943 255.065C18.8693 255.105 20.0568 256.343 20.0568 258.207C20.0568 260.258 18.5057 261.752 15.6761 261.752C12.8579 261.752 11.3068 260.247 11.3068 258.275C11.3068 256.73 12.1591 255.684 13.5398 255.247ZM21.5 249.537L21.5 242.174L19.9886 242.174L19.9886 247.782L16.4261 247.782L16.4261 242.622L14.9204 242.622L14.9204 247.782L11.375 247.782L11.375 242.242L9.86362 242.242L9.86362 249.537L21.5 249.537Z" fill="#333333"/>
<path d="M25.5798 522.131C26.2527 523.55 25.9449 525.57 24.693 527.785C23.4514 529.982 21.3371 532.254 18.6336 534.051C15.9302 535.849 13.1906 536.803 10.9596 536.914C8.71006 537.026 7.09302 536.286 6.42013 534.868C5.74723 533.449 6.05496 531.429 7.30689 529.214C8.54851 527.017 10.6628 524.745 13.3663 522.947C16.0697 521.15 18.8093 520.196 21.0403 520.085C23.2898 519.972 24.9069 520.713 25.5798 522.131Z" stroke="#BDBDBD"/>
<path d="M9.43919 520.061C9.81893 519.969 10.3788 520.036 11.161 520.35C11.9406 520.663 12.8647 521.194 13.8752 521.921C15.8921 523.374 18.1511 525.54 20.1517 528.075C22.1523 530.61 23.4886 533 24.0445 534.808C24.323 535.714 24.3984 536.45 24.2844 536.98C24.17 537.512 23.8793 537.786 23.4996 537.878C23.1198 537.971 22.56 537.903 21.7778 537.589C20.9982 537.276 20.0741 536.746 19.0636 536.018C17.0466 534.565 14.7877 532.399 12.7871 529.864C10.7865 527.329 9.45011 524.939 8.89421 523.131C8.61571 522.225 8.54034 521.489 8.65436 520.959C8.76876 520.427 9.05946 520.153 9.43919 520.061Z" stroke="#BDBDBD"/>
</svg>
