<svg width="32" height="744" viewBox="0 0 32 744" fill="none" xmlns="http://www.w3.org/2000/svg">
<line x1="15.5" y1="744" x2="15.5" y2="552" stroke="#4F4F4F"/>
<line x1="15.5" y1="192" x2="15.5" y2="-2.18557e-08" stroke="#4F4F4F"/>
<path d="M25.5798 225.632C26.2527 227.05 25.9449 229.07 24.693 231.285C23.4514 233.482 21.3371 235.755 18.6336 237.552C15.9302 239.349 13.1906 240.303 10.9596 240.415C8.71006 240.527 7.09302 239.787 6.42013 238.368C5.74723 236.95 6.05496 234.93 7.30689 232.714C8.54851 230.517 10.6628 228.245 13.3663 226.448C16.0697 224.651 18.8093 223.697 21.0403 223.585C23.2898 223.473 24.9069 224.213 25.5798 225.632Z" stroke="#BDBDBD"/>
<path d="M9.43919 223.56C9.81893 223.468 10.3788 223.535 11.161 223.85C11.9406 224.163 12.8647 224.693 13.8752 225.421C15.8921 226.874 18.1511 229.04 20.1517 231.575C22.1523 234.11 23.4886 236.5 24.0445 238.308C24.323 239.213 24.3984 239.95 24.2844 240.48C24.17 241.012 23.8793 241.286 23.4996 241.378C23.1198 241.47 22.56 241.403 21.7778 241.089C20.9982 240.775 20.0741 240.245 19.0636 239.517C17.0466 238.065 14.7877 235.899 12.7871 233.363C10.7865 230.828 9.45011 228.438 8.89421 226.631C8.61571 225.725 8.54034 224.989 8.65436 224.458C8.76876 223.926 9.05946 223.653 9.43919 223.56Z" stroke="#BDBDBD"/>
<path d="M21.5 482.955C21.5 479.409 19.3011 477.358 15.6648 477.358C12.0455 477.358 9.86364 479.409 9.86364 482.835L9.86364 486.722L21.5 486.722L21.5 482.955ZM19.9659 484.966L11.3977 484.966L11.3977 482.943C11.3977 480.398 12.9205 479.085 15.6648 479.085C18.4205 479.085 19.9659 480.398 19.9659 483.051L19.9659 484.966ZM21.5 473.575L21.5 466.211L19.9886 466.211L19.9886 471.819L16.4261 471.819L16.4261 466.66L14.9205 466.66L14.9205 471.819L11.375 471.819L11.375 466.279L9.86364 466.279L9.86364 473.575L21.5 473.575ZM13.6477 452.669C11.1591 453.067 9.70454 455.016 9.70454 457.476C9.70454 460.487 11.9602 462.709 15.6818 462.709C19.4034 462.709 21.6591 460.499 21.6591 457.476C21.6591 454.919 20.0568 453.05 17.7557 452.669L17.75 454.442C19.2386 454.743 20.0568 455.993 20.0568 457.465C20.0568 459.459 18.5284 460.965 15.6818 460.965C12.858 460.965 11.3068 459.465 11.3068 457.459C11.3068 455.976 12.142 454.732 13.6477 454.442L13.6477 452.669ZM21.5 448.968L21.5 441.605L19.9886 441.605L19.9886 447.213L16.4261 447.213L16.4261 442.054L14.9205 442.054L14.9205 447.213L11.375 447.213L11.375 441.673L9.86363 441.673L9.86363 448.968L21.5 448.968ZM9.86363 428.336L9.86363 430.074L18.4091 430.074L18.4091 430.182L9.86363 436.103L9.86363 437.728L21.5 437.728L21.5 435.972L12.9659 435.972L12.9659 435.864L21.5 429.949L21.5 428.336L9.86363 428.336ZM11.375 424.749L11.375 421.124L21.5 421.124L21.5 419.374L11.375 419.374L11.375 415.743L9.86363 415.743L9.86363 424.749L11.375 424.749ZM21.5 412.153L21.5 410.397L17.0966 410.397L17.0966 408.011C17.0966 407.971 17.0966 407.937 17.0966 407.897L21.5 405.534L21.5 403.534L16.7898 406.113C16.2614 404.687 15.0739 403.977 13.5114 403.977C11.3693 403.977 9.86363 405.306 9.86363 408.005L9.86363 412.153L21.5 412.153ZM15.5852 410.397L11.3693 410.397L11.3693 408.193C11.3693 406.46 12.1932 405.744 13.5114 405.744C14.8239 405.744 15.5852 406.46 15.5852 408.17L15.5852 410.397ZM21.5 399.257L18.4205 398.189L18.4205 393.644L21.5 392.581L21.5 390.718L9.86363 394.905L9.86363 396.934L21.5 401.121L21.5 399.257ZM16.9432 397.678L11.9773 395.962L11.9773 395.871L16.9432 394.155L16.9432 397.678ZM21.5 387.437L21.5 380.409L19.9886 380.409L19.9886 385.682L9.86363 385.682L9.86363 387.437L21.5 387.437ZM9.86363 375.05L9.86363 376.806L21.5 376.806L21.5 375.05L9.86363 375.05ZM21.5 371.195L21.5 362.876L19.9886 362.876L19.9886 369.047L11.0341 362.928L9.86363 362.928L9.86363 371.246L11.375 371.246L11.375 365.075L20.3295 371.195L21.5 371.195ZM21.5 359.075L21.5 351.711L19.9886 351.711L19.9886 357.319L16.4261 357.319L16.4261 352.16L14.9204 352.16L14.9204 357.319L11.375 357.319L11.375 351.779L9.86363 351.779L9.86363 359.075L21.5 359.075ZM21.5 344.067C21.5 340.522 19.3011 338.47 15.6648 338.47C12.0454 338.47 9.86363 340.522 9.86363 343.948L9.86363 347.834L21.5 347.834L21.5 344.067ZM19.9659 346.078L11.3977 346.078L11.3977 344.056C11.3977 341.51 12.9204 340.198 15.6648 340.198C18.4204 340.198 19.9659 341.51 19.9659 344.164L19.9659 346.078ZM21.5 323.018L21.5 318.558C21.5 315.854 20.1534 314.632 18.3693 314.632C16.5682 314.632 15.5511 315.893 15.4886 317.047L15.375 317.047C15.1023 315.979 14.375 315.087 12.9204 315.087C11.1989 315.087 9.86363 316.28 9.86363 318.757L9.86363 323.018L21.5 323.018ZM19.9943 321.263L16.267 321.263L16.267 318.666C16.267 317.257 17.1761 316.376 18.2841 316.376C19.2614 316.376 19.9943 317.041 19.9943 318.729L19.9943 321.263ZM14.8977 321.263L11.3579 321.263L11.3579 318.865C11.3579 317.473 12.0909 316.808 13.0568 316.808C14.1818 316.808 14.8977 317.729 14.8977 318.911L14.8977 321.263ZM21.5 310.95L21.5 309.194L17.0966 309.194L17.0966 306.808C17.0966 306.768 17.0966 306.734 17.0966 306.694L21.5 304.33L21.5 302.33L16.7898 304.91C16.2614 303.484 15.0739 302.774 13.5114 302.774C11.3693 302.774 9.86363 304.103 9.86363 306.802L9.86363 310.95L21.5 310.95ZM15.5852 309.194L11.3693 309.194L11.3693 306.989C11.3693 305.257 12.1932 304.541 13.5114 304.541C14.8239 304.541 15.5852 305.257 15.5852 306.967L15.5852 309.194ZM9.86363 297.282L9.86363 299.037L21.5 299.037L21.5 297.282L9.86363 297.282ZM21.5 289.358C21.5 285.812 19.3011 283.761 15.6648 283.761C12.0454 283.761 9.86363 285.812 9.86363 289.238L9.86363 293.125L21.5 293.125L21.5 289.358ZM19.9659 291.369L11.3977 291.369L11.3977 289.346C11.3977 286.801 12.9204 285.488 15.6648 285.488C18.4204 285.488 19.9659 286.801 19.9659 289.454L19.9659 291.369ZM13.5398 272.103L13.5398 270.302C11.2727 270.694 9.70454 272.631 9.70454 275.143C9.70454 278.154 11.9716 280.353 15.6875 280.353C19.3693 280.353 21.6591 278.216 21.6591 275.063C21.6591 272.239 19.8068 270.222 16.8693 270.222L15.5454 270.222L15.5454 274.796L16.9943 274.796L16.9943 271.921C18.8693 271.961 20.0568 273.199 20.0568 275.063C20.0568 277.114 18.5057 278.609 15.6761 278.609C12.8579 278.609 11.3068 277.103 11.3068 275.131C11.3068 273.586 12.1591 272.54 13.5398 272.103ZM21.5 266.393L21.5 259.03L19.9886 259.03L19.9886 264.638L16.4261 264.638L16.4261 259.479L14.9204 259.479L14.9204 264.638L11.375 264.638L11.375 259.098L9.86363 259.098L9.86363 266.393L21.5 266.393Z" fill="#333333"/>
<path d="M25.5798 505.632C26.2527 507.05 25.9449 509.07 24.693 511.285C23.4514 513.482 21.3371 515.755 18.6336 517.552C15.9302 519.349 13.1906 520.303 10.9596 520.415C8.71006 520.527 7.09302 519.787 6.42013 518.368C5.74723 516.95 6.05496 514.93 7.30689 512.714C8.54851 510.517 10.6628 508.245 13.3663 506.448C16.0697 504.651 18.8093 503.697 21.0403 503.585C23.2898 503.473 24.9069 504.213 25.5798 505.632Z" stroke="#BDBDBD"/>
<path d="M9.43919 503.56C9.81893 503.468 10.3788 503.535 11.161 503.85C11.9406 504.163 12.8647 504.693 13.8752 505.421C15.8921 506.874 18.1511 509.04 20.1517 511.575C22.1523 514.11 23.4886 516.5 24.0445 518.308C24.323 519.213 24.3984 519.95 24.2844 520.48C24.17 521.012 23.8793 521.286 23.4996 521.378C23.1198 521.47 22.56 521.403 21.7778 521.089C20.9982 520.775 20.0741 520.245 19.0636 519.517C17.0466 518.065 14.7877 515.899 12.7871 513.363C10.7865 510.828 9.45011 508.438 8.89421 506.631C8.61571 505.725 8.54034 504.989 8.65436 504.458C8.76876 503.926 9.05946 503.653 9.43919 503.56Z" stroke="#BDBDBD"/>
</svg>
