<svg width="24" height="24" viewBox="0 0 24 24" fill="none" xmlns="http://www.w3.org/2000/svg">
<path d="M3.77539 9.42499C3.71952 9.36926 3.67519 9.30305 3.64494 9.23015C3.61469 9.15726 3.59912 9.07911 3.59912 9.00019C3.59912 8.92127 3.61469 8.84313 3.64494 8.77023C3.67519 8.69734 3.71952 8.63113 3.77539 8.57539L7.37539 4.97539C7.43113 4.91952 7.49734 4.87519 7.57023 4.84494C7.64313 4.81469 7.72127 4.79912 7.80019 4.79912C7.87911 4.79912 7.95726 4.81469 8.03015 4.84494C8.10305 4.87519 8.16926 4.91952 8.22499 4.97539L11.825 8.57539C11.8808 8.63118 11.925 8.69741 11.9552 8.77029C11.9854 8.84318 12.001 8.9213 12.001 9.00019C12.001 9.07909 11.9854 9.15721 11.9552 9.23009C11.925 9.30298 11.8808 9.36921 11.825 9.42499C11.7692 9.48078 11.703 9.52503 11.6301 9.55522C11.5572 9.58541 11.4791 9.60095 11.4002 9.60095C11.3213 9.60095 11.2432 9.58541 11.1703 9.55522C11.0974 9.52503 11.0312 9.48078 10.9754 9.42499L8.40019 6.84859L8.40019 18.6002C8.40019 18.7593 8.33698 18.9119 8.22446 19.0245C8.11194 19.137 7.95932 19.2002 7.80019 19.2002C7.64106 19.2002 7.48845 19.137 7.37593 19.0245C7.26341 18.9119 7.20019 18.7593 7.20019 18.6002L7.20019 6.84859L4.62499 9.42499C4.56926 9.48087 4.50305 9.5252 4.43015 9.55545C4.35726 9.5857 4.27911 9.60127 4.20019 9.60127C4.12127 9.60127 4.04313 9.5857 3.97023 9.55545C3.89734 9.5252 3.83113 9.48087 3.77539 9.42499Z" fill="black"/>
<path d="M12.1753 14.5753C12.231 14.5194 12.2972 14.4751 12.3701 14.4448C12.443 14.4146 12.5212 14.399 12.6001 14.399C12.679 14.399 12.7572 14.4146 12.8301 14.4448C12.9029 14.4751 12.9692 14.5194 13.0249 14.5753L15.6001 17.1517L15.6001 5.4001C15.6001 5.24097 15.6633 5.08836 15.7758 4.97583C15.8884 4.86331 16.041 4.8001 16.2001 4.8001C16.3592 4.8001 16.5118 4.86331 16.6244 4.97583C16.7369 5.08836 16.8001 5.24097 16.8001 5.4001L16.8001 17.1517L19.3753 14.5753C19.488 14.4626 19.6408 14.3993 19.8001 14.3993C19.9594 14.3993 20.1122 14.4626 20.2249 14.5753C20.3376 14.688 20.4009 14.8408 20.4009 15.0001C20.4009 15.1594 20.3376 15.3122 20.2249 15.4249L16.6249 19.0249C16.5692 19.0808 16.5029 19.1251 16.4301 19.1554C16.3572 19.1856 16.279 19.2012 16.2001 19.2012C16.1212 19.2012 16.043 19.1856 15.9701 19.1554C15.8972 19.1251 15.831 19.0808 15.7753 19.0249L12.1753 15.4249C12.1194 15.3692 12.0751 15.303 12.0448 15.2301C12.0146 15.1572 11.999 15.079 11.999 15.0001C11.999 14.9212 12.0146 14.843 12.0448 14.7701C12.0751 14.6972 12.1194 14.631 12.1753 14.5753Z" fill="black"/>
</svg>
