<svg width="143" height="143" viewBox="0 0 143 143" fill="none" xmlns="http://www.w3.org/2000/svg">
<path d="M71.5 143C110.988 143 143 110.988 143 71.5C143 32.0116 110.988 0 71.5 0C32.0116 0 0 32.0116 0 71.5C0 110.988 32.0116 143 71.5 143Z" fill="url(#paint0_linear_1:16)"/>
<path fill-rule="evenodd" clip-rule="evenodd" d="M32.3649 70.7452C53.2086 61.664 67.1077 55.677 74.0621 52.7845C93.9185 44.5255 98.0444 43.0909 100.734 43.0435C101.325 43.0331 102.648 43.1797 103.504 43.8748C104.228 44.4617 104.427 45.2546 104.522 45.8111C104.617 46.3676 104.736 47.6353 104.641 48.6258C103.565 59.9316 98.9095 87.3679 96.5408 100.031C95.5386 105.389 93.5651 107.185 91.6545 107.361C87.5023 107.743 84.3494 104.617 80.3279 101.981C74.0349 97.8558 70.4798 95.2879 64.3714 91.2626C57.3122 86.6106 61.8884 84.0538 65.9115 79.8753C66.9643 78.7817 85.2587 62.1416 85.6128 60.632C85.6571 60.4433 85.6982 59.7395 85.2801 59.3679C84.8621 58.9963 84.245 59.1234 83.7998 59.2245C83.1686 59.3677 73.1156 66.0124 53.6406 79.1585C50.7871 81.118 48.2025 82.0727 45.8868 82.0226C43.3338 81.9675 38.423 80.5792 34.7724 79.3925C30.2947 77.937 26.7359 77.1674 27.0458 74.6955C27.2072 73.408 28.9802 72.0912 32.3649 70.7452Z" fill="white"/>
<defs>
<linearGradient id="paint0_linear_1:16" x1="71.5" y1="0" x2="71.5" y2="141.939" gradientUnits="userSpaceOnUse">
<stop stop-color="#2AABEE"/>
<stop offset="1" stop-color="#229ED9"/>
</linearGradient>
</defs>
</svg>
