<svg width="164" height="27" viewBox="0 0 164 27" fill="none" xmlns="http://www.w3.org/2000/svg">
<path d="M18.7534 23.9415C24.5363 23.9415 29.2242 19.2535 29.2242 13.4707C29.2242 7.6879 24.5363 3 18.7534 3C12.9706 3 8.28271 7.6879 8.28271 13.4707C8.28271 19.2535 12.9706 23.9415 18.7534 23.9415Z" stroke="black" stroke-width="4.18829"/>
<path d="M35.4129 11.3765H2.09415C0.937581 11.3765 0 12.314 0 13.4706C0 14.6272 0.937581 15.5648 2.09415 15.5648H35.4129C36.5695 15.5648 37.5071 14.6272 37.5071 13.4706C37.5071 12.314 36.5695 11.3765 35.4129 11.3765Z" fill="black"/>
<path d="M57.5216 20.0518V6.86789H61.6664C62.4584 6.86789 63.1004 6.22589 63.1004 5.43394C63.1004 4.642 62.4584 4 61.6664 4H50.2606C49.4687 4 48.8267 4.642 48.8267 5.43394C48.8267 6.22589 49.4687 6.86789 50.2606 6.86789H54.4055V20.0518C54.4055 20.9123 55.103 21.6099 55.9635 21.6099C56.824 21.6099 57.5216 20.9123 57.5216 20.0518ZM87.5205 20.2262C87.5205 19.4621 86.901 18.8426 86.1368 18.8426H77.4434V14.1131H84.8804C85.6445 14.1131 86.264 13.4936 86.264 12.7295C86.264 11.9653 85.6445 11.3458 84.8804 11.3458H77.4434V6.76726H86.0112C86.7753 6.76726 87.3948 6.14779 87.3948 5.38363C87.3948 4.61947 86.7753 4 86.0112 4H76.2562C75.2048 4 74.3525 4.85235 74.3525 5.90377V19.7061C74.3525 20.7575 75.2048 21.6099 76.2562 21.6099H86.1368C86.901 21.6099 87.5205 20.9904 87.5205 20.2262ZM113.172 20.2388C113.172 19.4816 112.558 18.8678 111.801 18.8678H102.793L112.859 6.66825L113.088 6.31497L113.172 6.12145V5.90377C113.172 4.85235 112.32 4 111.268 4H100.47C99.7131 4 99.0993 4.61384 99.0993 5.37105C99.0993 6.12826 99.7131 6.74211 100.47 6.74211H109.151L99.2079 18.793C98.9265 19.134 98.7726 19.5624 98.7726 20.0046V20.4652C98.7726 21.0974 99.2851 21.6099 99.9172 21.6099H111.801C112.558 21.6099 113.172 20.996 113.172 20.2388ZM137.592 20.2262C137.592 19.4621 136.973 18.8426 136.208 18.8426H127.515V14.1131H134.952C135.716 14.1131 136.336 13.4936 136.336 12.7295C136.336 11.9653 135.716 11.3458 134.952 11.3458H127.515V6.76726H136.083C136.847 6.76726 137.466 6.14779 137.466 5.38363C137.466 4.61947 136.847 4 136.083 4H126.328C125.276 4 124.424 4.85235 124.424 5.90377V19.7061C124.424 20.7575 125.276 21.6099 126.328 21.6099H136.208C136.973 21.6099 137.592 20.9904 137.592 20.2262ZM152.099 20.7951L156.18 14.9433L160.236 20.7911C160.591 21.3039 161.176 21.6099 161.8 21.6099H162.626C163.146 21.6099 163.567 21.1882 163.567 20.668C163.567 20.4729 163.507 20.2826 163.394 20.1234L158.064 12.6037L163.168 5.44275C163.461 5.03216 163.365 4.4621 162.954 4.16948C162.8 4.05924 162.614 4 162.425 4H161.647C161.024 4 160.441 4.30466 160.085 4.81575L156.255 10.3144L152.45 4.81994C152.095 4.30641 151.51 4 150.885 4H150.061C149.542 4 149.121 4.42074 149.121 4.93976C149.121 5.13502 149.182 5.32544 149.295 5.48454L154.396 12.654L149.018 20.1691C148.726 20.5781 148.82 21.1471 149.229 21.4398C149.384 21.5504 149.569 21.6099 149.759 21.6099H150.537C151.16 21.6099 151.743 21.3056 152.099 20.7951Z" fill="black"/>
</svg>
