<svg width="96" height="96" viewBox="0 0 96 96" fill="none" xmlns="http://www.w3.org/2000/svg">
<path d="M83.9999 24.858C81.3539 26.03 78.5079 26.812 75.5059 27.182C78.5579 25.37 80.9059 22.48 82.0079 19.066C79.1519 20.74 75.9879 21.97 72.6219 22.618C69.9339 19.768 66.0999 18 61.8519 18C53.6919 18 47.0779 24.556 47.0779 32.64C47.0779 33.784 47.2119 34.898 47.4639 35.98C35.1879 35.364 24.2999 29.528 17.0159 20.672C15.7359 22.836 15.0159 25.37 15.0159 28.044C15.0159 33.126 17.6179 37.6 21.5859 40.236C19.1639 40.162 16.8839 39.488 14.8879 38.408C14.8879 38.452 14.8879 38.518 14.8879 38.58C14.8879 45.682 19.9819 51.596 26.7339 52.942C25.4999 53.28 24.1959 53.468 22.8519 53.468C21.8979 53.468 20.9679 53.36 20.0679 53.198C21.9479 59.002 27.4019 63.244 33.8639 63.37C28.8079 67.29 22.4399 69.638 15.5159 69.638C14.3199 69.638 13.1499 69.57 11.9939 69.43C18.5359 73.572 26.3039 76 34.6419 76C61.8119 76 76.6759 53.688 76.6759 34.332C76.6759 33.698 76.6559 33.066 76.6259 32.442C79.5259 30.394 82.0259 27.81 83.9999 24.858Z" fill="#03A9F4"/>
</svg>
