<svg width="155" height="155" viewBox="0 0 155 155" fill="none" xmlns="http://www.w3.org/2000/svg">
<path d="M77.5 155C120.302 155 155 120.302 155 77.5C155 34.6979 120.302 0 77.5 0C34.6979 0 0 34.6979 0 77.5C0 120.302 34.6979 155 77.5 155Z" fill="#1B9DF0"/>
<path d="M63.3175 118.381C97.6888 118.381 116.483 89.9 116.483 65.2162C116.483 64.4025 116.483 63.5888 116.444 62.8137C120.086 60.1787 123.264 56.885 125.783 53.1262C122.45 54.5987 118.846 55.6062 115.049 56.0712C118.924 53.7462 121.869 50.1037 123.264 45.725C119.66 47.8562 115.669 49.4062 111.406 50.2587C107.996 46.6162 103.153 44.3687 97.7663 44.3687C87.4588 44.3687 79.0888 52.7387 79.0888 63.0462C79.0888 64.5187 79.2438 65.9525 79.5925 67.3087C64.0538 66.5337 50.2975 59.0937 41.075 47.7787C39.4863 50.53 38.5563 53.7462 38.5563 57.1562C38.5563 63.6275 41.85 69.3625 46.8875 72.695C43.8263 72.6175 40.9588 71.765 38.44 70.37C38.44 70.4475 38.44 70.525 38.44 70.6025C38.44 79.67 44.8725 87.1875 53.4363 88.9313C51.8863 89.3575 50.22 89.59 48.515 89.59C47.3138 89.59 46.1513 89.4738 44.9888 89.2413C47.3525 96.6813 54.25 102.068 62.4263 102.222C56.0325 107.221 47.9725 110.205 39.215 110.205C37.7038 110.205 36.2313 110.128 34.7588 109.934C42.935 115.281 52.7775 118.381 63.3175 118.381Z" fill="white"/>
</svg>
