<?xml version="1.0" encoding="UTF-8"?>
<svg width="1284px" height="1300px" viewBox="0 0 1284 1300" version="1.1" xmlns="http://www.w3.org/2000/svg" xmlns:xlink="http://www.w3.org/1999/xlink">
    <title>Group 6</title>
    <g id="Page-1" stroke="none" stroke-width="1" fill="none" fill-rule="evenodd">
        <g id="Group-6">
            <ellipse id="Oval" fill="#367DF7" cx="641.686477" cy="650" rx="641.686477" ry="650"></ellipse>
            <path d="M727.826225,1055.1823 C766.925118,1055.1823 803.27487,1046.82802 836.875481,1030.11947 C870.476092,1013.41092 895.52382,988.038685 912.018665,954.002753 C928.513511,919.966822 936.760933,883.146132 936.760933,843.540684 C936.760933,826.213301 934.546348,806.410577 930.117176,784.132513 C925.688005,761.854448 915.989647,738.570777 901.022102,714.281498 C886.054557,689.99222 864.748715,670.808331 837.104576,656.729832 C809.460437,642.651333 784.641804,635.612083 762.648677,635.612083 C749.208432,636.849754 736.379108,639.943929 724.160704,644.89461 L724.160704,644.89461 L927.59713,438.822515 L894.60744,405.405418 L562.877772,406.333671 L562.877772,261.526253 L530.804461,244.817704 L445.581094,244.817704 L445.581094,268.952274 L474.905263,298.65636 L474.905263,406.333671 L346.612022,406.333671 L346.612022,453.674558 L474.905263,453.674558 L474.905263,708.015793 C474.905263,745.1459 485.290907,774.540568 506.062193,796.199797 C526.83348,817.859027 564.405072,828.688641 618.77697,828.688641 C640.770097,828.688641 660.930464,822.50029 679.25807,810.123588 C697.585676,797.746885 711.9423,779.800667 722.327944,756.284932 C723.549784,750.715416 724.313434,746.38357 724.618894,743.289395 C724.618894,736.791626 722.480674,731.067401 718.204232,726.11672 C713.622331,722.713127 709.651349,721.01133 706.291288,721.01133 C704.153068,721.01133 702.167577,721.70752 700.334816,723.099899 C698.502056,724.492278 696.974755,726.580846 695.752915,729.365604 C685.978192,743.598812 674.370708,755.666097 660.930464,765.567459 C647.490219,775.468821 633.439055,780.419502 618.77697,780.419502 C599.838444,780.419502 585.787279,773.612315 576.623476,759.997943 C567.459673,746.38357 562.877772,729.056187 562.877772,708.015793 L562.877772,708.015793 L562.877772,453.674558 L813.965973,453.674558 L632.522674,698.733266 L632.522674,719.154825 L672.843408,698.733266 C694.836535,686.356563 713.164141,680.168212 727.826225,680.168212 C750.124813,680.168212 770.896099,686.201855 790.140086,698.269139 C809.384072,710.336424 823.969792,728.824124 833.897245,753.732237 C843.824698,778.640351 848.788425,808.5765 848.788425,843.540684 C848.788425,875.72011 844.206523,904.495944 835.04272,929.868184 C825.878917,955.240424 811.675023,974.424312 792.431036,987.41985 C773.18705,1000.41539 751.652113,1006.91316 727.826225,1006.91316 C710.72046,1006.91316 693.614694,1004.51517 676.508929,999.719198 C659.403163,994.923226 646.879299,986.955724 638.937337,975.816691 C648.101139,973.031933 656.043102,967.153 662.763224,958.17989 C669.483346,949.206781 672.843408,937.603623 672.843408,923.370415 C672.843408,911.612548 670.552457,901.711186 665.970555,893.666329 C661.388654,885.621472 655.126722,879.278412 647.184759,874.637149 C639.242797,869.995886 629.468073,867.675254 617.86059,867.675254 C606.253106,867.675254 596.478383,869.995886 588.53642,874.637149 C580.594458,879.278412 574.332526,885.621472 569.750624,893.666329 C565.168723,901.711186 562.877772,911.612548 562.877772,923.370415 C562.877772,955.549841 576.012556,985.563345 602.282125,1013.41092 C628.551693,1041.25851 670.399727,1055.1823 727.826225,1055.1823 Z" id="ꜩ" fill="#FFFFFF" fill-rule="nonzero"></path>
        </g>
    </g>
</svg>