<svg width="24" height="24" viewBox="0 0 24 24" fill="none" xmlns="http://www.w3.org/2000/svg">
<circle cx="12" cy="12" r="11.5" fill="white" stroke="#3391F6"/>
<g clip-path="url(#clip0)">
<path fill-rule="evenodd" clip-rule="evenodd" d="M13.6897 19.1998C12.621 19.1998 11.8421 18.9577 11.3529 18.4582C10.8638 17.9586 10.6272 17.4359 10.6272 16.859C10.6272 16.6556 10.667 16.4753 10.7601 16.3337C10.8398 16.1921 10.9568 16.0788 11.103 16.0015C11.2492 15.9243 11.4327 15.8728 11.6454 15.8728C11.858 15.8728 12.0415 15.9114 12.1877 16.0015C12.3339 16.0788 12.4509 16.1921 12.5306 16.3337C12.6104 16.4753 12.6635 16.653 12.6635 16.859C12.6635 17.114 12.5971 17.32 12.4774 17.4719C12.3578 17.6264 12.201 17.7397 12.0282 17.7912C12.1744 17.9818 12.411 18.1234 12.7273 18.2135C13.0437 18.3037 13.3601 18.3423 13.6791 18.3423C14.1283 18.3423 14.5245 18.2264 14.8807 17.9972C15.2369 17.768 15.5001 17.423 15.6729 16.9749C15.8457 16.5268 15.9228 16.017 15.9228 15.4401C15.9228 14.8144 15.8298 14.2891 15.6463 13.8539C15.4602 13.4058 15.197 13.0736 14.8408 12.8702C14.4846 12.6539 14.1018 12.5509 13.6791 12.5509C13.4026 12.5509 13.0729 12.6668 12.6635 12.8831L11.9192 13.2281V12.8702L15.2848 8.52341H10.6272V13.0376C10.6272 13.4084 10.7069 13.7148 10.8771 13.9595C11.0499 14.2015 11.313 14.3174 11.656 14.3174C11.9325 14.3174 12.185 14.2273 12.4349 14.0496C12.6848 13.8693 12.8975 13.653 13.0809 13.411C13.1075 13.3595 13.1341 13.3208 13.1607 13.308C13.2005 13.2822 13.2271 13.2693 13.267 13.2693C13.3335 13.2693 13.3999 13.2951 13.4903 13.3595C13.5701 13.4496 13.6099 13.55 13.6099 13.6659C13.6099 13.7174 13.5834 13.7947 13.5701 13.8951C13.384 14.3174 13.1208 14.6367 12.7779 14.853C12.4349 15.0693 12.0654 15.1852 11.656 15.1852C10.6405 15.1852 9.95192 14.9947 9.55581 14.611C9.17299 14.2273 8.97626 13.702 8.97626 13.0504V8.52341H6.59961V7.67877H8.98956V5.76032L8.44723 5.235V4.7998H10.0317L10.6245 5.09337V7.6659L16.7895 7.65302L17.3956 8.24015L13.6232 11.9123C13.8465 11.8221 14.0858 11.7706 14.3357 11.7449C14.7451 11.7449 15.2077 11.8736 15.7075 12.1286C16.2232 12.3706 16.6193 12.7157 16.8958 13.1509C17.1723 13.5861 17.3584 13.9955 17.4381 14.3921C17.5179 14.7886 17.571 15.1337 17.571 15.453C17.571 16.156 17.4115 16.8075 17.1085 17.4101C16.8054 18.0101 16.3428 18.4711 15.7101 18.7646C15.088 19.0582 14.4155 19.1998 13.6897 19.1998Z" fill="#3391F6"/>
</g>
<defs>
<clipPath id="clip0">
<rect width="14.4" height="14.4" fill="white" transform="translate(4.7998 4.7998)"/>
</clipPath>
</defs>
</svg>
