<svg width="24" height="24" viewBox="0 0 24 24" fill="none" xmlns="http://www.w3.org/2000/svg">
<path fill-rule="evenodd" clip-rule="evenodd" d="M14.1126 22C12.7767 22 11.8031 21.6638 11.1916 20.97C10.5802 20.2761 10.2844 19.5501 10.2844 18.7489C10.2844 18.4664 10.3343 18.216 10.4506 18.0193C10.5503 17.8226 10.6965 17.6652 10.8793 17.5579C11.062 17.4506 11.2913 17.3791 11.5572 17.3791C11.823 17.3791 12.0523 17.4328 12.2351 17.5579C12.4178 17.6652 12.5641 17.8226 12.6638 18.0193C12.7634 18.216 12.8299 18.4628 12.8299 18.7489C12.8299 19.103 12.7468 19.3891 12.5973 19.6001C12.4478 19.8147 12.2517 19.9721 12.0357 20.0436C12.2185 20.3083 12.5142 20.505 12.9097 20.6302C13.3051 20.7554 13.7006 20.809 14.0993 20.809C14.6609 20.809 15.1561 20.6481 15.6013 20.3298C16.0466 20.0114 16.3756 19.5322 16.5916 18.9099C16.8076 18.2876 16.904 17.5794 16.904 16.7783C16.904 15.9092 16.7877 15.1795 16.5584 14.5751C16.3258 13.9528 15.9968 13.4914 15.5515 13.2089C15.1062 12.9084 14.6277 12.7654 14.0993 12.7654C13.7537 12.7654 13.3417 12.9263 12.8299 13.2268L11.8995 13.706V13.2089L16.1065 7.17167H10.2844V13.4413C10.2844 13.9564 10.3841 14.382 10.5968 14.7217C10.8128 15.0579 11.1418 15.2189 11.5705 15.2189C11.9161 15.2189 12.2318 15.0937 12.5441 14.8469C12.8565 14.5966 13.1223 14.2961 13.3516 13.9599C13.3849 13.8884 13.4181 13.8348 13.4513 13.8169C13.5012 13.7811 13.5344 13.7632 13.5842 13.7632C13.6673 13.7632 13.7504 13.799 13.8634 13.8884C13.9631 14.0136 14.0129 14.1531 14.0129 14.314C14.0129 14.3856 13.9797 14.4928 13.9631 14.6323C13.7305 15.2189 13.4015 15.6624 12.9728 15.9628C12.5441 16.2632 12.0822 16.4242 11.5705 16.4242C10.3011 16.4242 9.44038 16.1595 8.94525 15.6266C8.46673 15.0937 8.22082 14.3641 8.22082 13.4592V7.17167H5.25V5.99857H8.23744V3.33405L7.55953 2.60443V2H9.54008L10.2811 2.40773V5.98069L17.9873 5.9628L18.745 6.77825L14.0295 11.8784C14.3087 11.7532 14.6077 11.6817 14.9201 11.6459C15.4319 11.6459 16.0101 11.8248 16.6348 12.1788C17.2795 12.515 17.7746 12.9943 18.1202 13.5987C18.4658 14.2031 18.6984 14.7718 18.7981 15.3226C18.8978 15.8734 18.9643 16.3526 18.9643 16.7961C18.9643 17.7725 18.7649 18.6774 18.3861 19.5143C18.0072 20.3476 17.429 20.9878 16.6381 21.3956C15.8605 21.8033 15.0198 22 14.1126 22Z" fill="#3391F6"/>
</svg>
