<svg width="32" height="32" viewBox="0 0 32 32" fill="none" xmlns="http://www.w3.org/2000/svg">
<path d="M32 16C32 7.16344 24.8366 0 16 0C7.16344 0 0 7.16344 0 16C0 24.8366 7.16344 32 16 32C24.8366 32 32 24.8366 32 16Z" fill="url(#paint0_radial)"/>
<path d="M10.5752 11.5334C13.5711 8.60021 18.4282 8.60021 21.424 11.5334L21.7846 11.8864C21.9344 12.033 21.9344 12.2708 21.7846 12.4175L20.5512 13.625C20.4763 13.6984 20.3549 13.6984 20.28 13.625L19.7838 13.1393C17.6939 11.093 14.3054 11.093 12.2155 13.1393L11.6841 13.6595C11.6092 13.7328 11.4878 13.7328 11.4129 13.6595L10.1795 12.4519C10.0297 12.3053 10.0297 12.0675 10.1795 11.9208L10.5752 11.5334ZM23.9748 14.0308L25.0725 15.1055C25.2223 15.2522 25.2223 15.4899 25.0725 15.6366L20.1229 20.4828C19.9731 20.6294 19.7302 20.6294 19.5804 20.4828C19.5804 20.4828 19.5804 20.4828 19.5804 20.4828L16.0675 17.0433C16.03 17.0066 15.9693 17.0066 15.9319 17.0433C15.9319 17.0433 15.9319 17.0433 15.9319 17.0433L12.419 20.4828C12.2692 20.6294 12.0264 20.6294 11.8766 20.4828C11.8766 20.4828 11.8766 20.4828 11.8766 20.4828L6.9268 15.6365C6.77701 15.4899 6.77701 15.2521 6.9268 15.1054L8.0245 14.0307C8.17429 13.884 8.41715 13.884 8.56694 14.0307L12.0799 17.4702C12.1174 17.5069 12.1781 17.5069 12.2155 17.4702C12.2155 17.4702 12.2155 17.4702 12.2155 17.4702L15.7284 14.0307C15.8781 13.884 16.121 13.884 16.2708 14.0307C16.2708 14.0307 16.2708 14.0307 16.2708 14.0307L19.7838 17.4702C19.8212 17.5069 19.882 17.5069 19.9194 17.4702L23.4323 14.0308C23.5821 13.8841 23.825 13.8841 23.9748 14.0308Z" fill="white"/>
<defs>
<radialGradient id="paint0_radial" cx="0" cy="0" r="1" gradientUnits="userSpaceOnUse" gradientTransform="translate(0 16) scale(32)">
<stop stop-color="#5D9DF6"/>
<stop offset="1" stop-color="#006FFF"/>
</radialGradient>
</defs>
</svg>
