<svg width="16" height="16" viewBox="0 0 16 16" fill="none" xmlns="http://www.w3.org/2000/svg">
<path d="M5.83249 14.9966C7.17061 16.3348 9.34065 16.3348 10.6788 14.9966L14.9967 10.6787C16.3348 9.34062 16.3348 7.17058 14.9967 5.83246C13.7281 4.56391 11.7124 4.49837 10.3662 5.63482C11.5026 4.28863 11.4371 2.27287 10.1685 1.00432C8.83041 -0.333798 6.66037 -0.333798 5.32225 1.00432L1.00335 5.32222C-0.334775 6.66034 -0.334775 8.83038 1.00335 10.1685C2.27189 11.437 4.28765 11.5026 5.63384 10.3661C4.49739 11.7123 4.56294 13.7281 5.83148 14.9966H5.83249ZM5.0762 4.84525C5.0762 2.64597 7.73531 1.54381 9.29124 3.09974C10.2553 4.06376 10.2553 5.62675 9.29124 6.59177C7.73632 8.1467 5.0762 7.04554 5.0762 4.84626V4.84525ZM6.18139 11.6891C5.70745 11.2152 5.70745 10.4468 6.18139 9.97288C6.94574 9.20852 8.25261 9.75002 8.25261 10.831C8.25261 11.912 6.94574 12.4535 6.18139 11.6891Z" fill="black"/>
</svg>
